<?xml version="1.0" encoding="UTF-8"?><svg id="Ebene_2" xmlns="http://www.w3.org/2000/svg" viewBox="0 0 975.04 350.34"><defs><style>.cls-1{fill:#7f7f7f;stroke-width:0px;}</style></defs><g id="Ebene_1-2"><path class="cls-1" d="m487.52,59.96v-3.09c-24.48,0-44.39,19.92-44.39,44.39s19.92,44.4,44.39,44.4c16.19,0,30.38-8.72,38.14-21.7l-2.64-1.57c3.8-6.37,5.81-13.67,5.81-21.12,0-22.78-18.53-41.31-41.31-41.31Zm0,68.57c-8.9,0-16.8-4.31-21.78-10.93l-2.48,1.86c-3.98-5.3-6.09-11.59-6.09-18.19,0-16.73,13.61-30.35,30.35-30.35v3.09c15.03,0,27.26,12.23,27.26,27.26s-12.23,27.26-27.26,27.26Z"/><path class="cls-1" d="m487.52,37.19c-35.34,0-64.08,28.75-64.08,64.08,0,12.16,3.41,23.55,9.32,33.25l2.62-1.59c11.18,18.37,30.67,29.34,52.15,29.34s41.69-11.56,52.62-30.16l2.64,1.55c5.6-9.51,8.82-20.58,8.82-32.39,0-35.34-28.75-64.08-64.08-64.08Zm43.46,89.94l-2.67-1.59c-8.29,13.89-23.47,23.21-40.79,23.21-26.18,0-47.48-21.3-47.48-47.48s21.3-47.48,47.48-47.48v-3.09c27.88,0,50.57,22.68,50.57,50.57,0,9.11-2.46,18.06-7.11,25.86Z"/><path class="cls-1" d="m487.52,77.1v3.09c-11.63,0-21.08,9.46-21.08,21.08,0,4.57,1.46,8.94,4.23,12.63l-2.46,1.85c4.41,5.87,11.42,9.7,19.31,9.7,13.33,0,24.17-10.84,24.17-24.17s-10.84-24.17-24.17-24.17Z"/><path class="cls-1" d="m386.25,0v202.54h202.54V0h-202.54Zm161.88,136.8c-12.58,21.42-35.81,34.73-60.61,34.73s-47.19-12.63-60.06-33.79l2.66-1.62c-6.2-10.17-9.77-22.1-9.77-34.85,0-37.04,30.13-67.17,67.17-67.17s67.17,30.13,67.17,67.17c0,12.38-3.38,23.98-9.25,33.95l2.68,1.58Z"/><path class="cls-1" d="m36.79,251.45h-9.84L0,323.81h9.5l8.72-23.66h27.2l8.64,23.66h8.98l-26.25-72.36Zm-16.58,41.62l11.31-33.16,11.83,33.16h-23.14Z"/><path class="cls-1" d="m98.96,245.92v25.39h-11.74c-8.81,0-25.04,8.29-25.04,26.6s13.64,27.8,25.91,27.8,19-5.35,19-5.35v-74.43h-8.12Zm.17,70.63s-2.25,2.76-11.05,2.76-18.48-8.98-18.48-20.55,9.84-21.45,22.28-21.45c4.45,0,7.25.9,7.25.9v38.34Z"/><path class="cls-1" d="m966.93,245.92v25.39h-11.74c-8.81,0-25.04,8.29-25.04,26.6s13.64,27.8,25.91,27.8,19-5.35,19-5.35v-74.43h-8.12Zm.17,70.63s-2.25,2.76-11.05,2.76-18.48-8.98-18.48-20.55,9.84-21.45,22.28-21.45c4.45,0,7.25.9,7.25.9v38.34Z"/><path class="cls-1" d="m180.89,245.92v25.39h11.74c8.81,0,25.04,8.29,25.04,26.6s-13.64,27.8-25.91,27.8-19-5.35-19-5.35v-74.43h8.12Zm-.17,70.63s2.25,2.76,11.05,2.76,18.48-8.98,18.48-20.55-9.84-21.45-22.28-21.45c-4.45,0-7.25.9-7.25.9v38.34Z"/><path class="cls-1" d="m139.34,270.52c-14.49,0-26.24,12.24-26.24,27.34s11.75,27.34,26.24,27.34,26.24-12.24,26.24-27.34-11.75-27.34-26.24-27.34Zm0,48.79c-9.79,0-17.72-9.59-17.72-21.41s7.93-21.41,17.72-21.41,17.72,9.59,17.72,21.41-7.93,21.41-17.72,21.41Z"/><path class="cls-1" d="m845.09,270.52c-14.49,0-26.24,12.24-26.24,27.34s11.75,27.34,26.24,27.34,26.24-12.24,26.24-27.34-11.75-27.34-26.24-27.34Zm0,48.79c-9.79,0-17.72-9.59-17.72-21.41s7.93-21.41,17.72-21.41,17.72,9.59,17.72,21.41-7.93,21.41-17.72,21.41Z"/><path class="cls-1" d="m245.13,319.32c-9.17,0-16.61-9.59-16.61-21.41h33.22l7.98-.04c0-15.1-11.01-27.34-24.59-27.34s-24.59,12.24-24.59,27.34,11.01,27.34,24.59,27.34c8.16,0,13.46-.27,19.1-4.26,0,0,.4-4.61-1.24-6.46-4.48,3.9-11.91,4.83-17.86,4.83Zm0-42.83c7.73,0,14.2,6.81,16.06,16.02h-32.11c1.86-9.21,8.33-16.02,16.06-16.02Z"/><path class="cls-1" d="m530.81,319.32c-9.17,0-16.61-9.59-16.61-21.41h33.22l7.98-.04c0-15.1-11.01-27.34-24.59-27.34s-24.59,12.24-24.59,27.34,11.01,27.34,24.59,27.34c8.16,0,13.46-.27,19.1-4.26,0,0,.4-4.61-1.24-6.46-4.48,3.9-11.91,4.83-17.86,4.83Zm0-42.83c7.73,0,14.2,6.81,16.06,16.02h-32.11c1.86-9.21,8.33-16.02,16.06-16.02Z"/><polygon class="cls-1" points="296.35 324.57 301.8 251.84 312.36 251.84 333.72 313.23 357.29 251.84 367.41 251.84 371.42 324.57 363.85 324.57 361.07 258.74 338.16 324.57 329.93 324.57 307.58 257.85 304.47 324.57 296.35 324.57"/><path class="cls-1" d="m401.23,270.28c-10.38,0-15.74,4.04-15.74,4.04v6.56s1.53-1.42,5.68-2.51c4.15-1.09,11.04-1.53,16.72.77,5.68,2.3,5.14,13.01,5.14,13.01h-9.07c-9.84,0-22.73,3.61-22.73,16.29s9.84,16.83,21.09,16.83,17.6-4.15,17.6-4.15v-34.1c0-10.38-8.31-16.72-18.69-16.72Zm11.7,47.33s-5.03,1.86-10.82,1.86-13.66-2.08-13.66-10.44,7.98-10.44,16.83-10.44h7.65v19.02Z"/><path class="cls-1" d="m433.36,324.57v-52.98h6.67v8.42s3.83-4.37,9.18-7.21,10.06-1.75,10.06-1.75v7.21s-8.09.33-11.69,2.73-6.78,5.9-6.78,5.9v37.68h-7.43Z"/><rect class="cls-1" x="465.5" y="245.9" width="7.65" height="78.67"/><path class="cls-1" d="m497.74,271.37h8.47l-24.54,24.92,28.42,28.28h-10.71l-26.23-27.63,24.59-25.58Z"/><path class="cls-1" d="m565.25,256.17l7.02-.76v58.88c0,4.74,3.6,4.74,6.83,4.74s5.5-1.61,5.5-1.61v6.26s-3.79,1.52-8.06,1.52-11.85-2-11.85-10.25.57-58.79.57-58.79Z"/><rect class="cls-1" x="556.14" y="271.37" width="28.45" height="6.61"/><rect class="cls-1" x="591.98" y="271.37" width="7.87" height="53.2"/><rect class="cls-1" x="612.85" y="271.37" width="7.87" height="53.2"/><circle class="cls-1" cx="595.9" cy="255.06" r="4.76"/><path class="cls-1" d="m618.63,279.31s7.68-8.78,17.64-8.78,18.87,5.94,18.87,15.42v38.63h-8.15v-38.91c0-5.5-5.03-8.34-12.23-8.34s-16.12,9.1-16.12,9.1v-7.11Z"/><path class="cls-1" d="m685,270.53c-10.92,0-19.77,8.31-19.77,18.55s8.85,18.55,19.77,18.55,19.77-8.31,19.77-18.55-8.85-18.55-19.77-18.55Zm0,31.26c-6.95,0-12.58-5.69-12.58-12.71s5.63-12.71,12.58-12.71,12.58,5.69,12.58,12.71-5.63,12.71-12.58,12.71Z"/><path class="cls-1" d="m713.24,331.11c-.75-9.46-12.52-16.25-26.29-15.16-13.77,1.09-24.32,9.65-23.57,19.12.75,9.46,12.52,16.25,26.29,15.16s24.32-9.65,23.57-19.12Zm-24.45,14.62c-9.43.43-17.32-4.48-17.62-10.98-.3-6.5,7.11-12.11,16.54-12.54,9.43-.43,17.32,4.48,17.62,10.98.3,6.5-7.11,12.11-16.54,12.54Z"/><path class="cls-1" d="m674.26,301.79s-2.82,6.33-2.82,10.41,5.25,9.42,5.25,9.42l9.71-5.05s-7.67-.99-8.45-4.86,3.4-6.89,3.4-6.89l-7.09-3.03Z"/><rect class="cls-1" x="685" y="270.53" width="26.57" height="5.84"/><path class="cls-1" d="m879.45,271.34h7.5v38.39c0,5.78,5.69,9.03,13.64,9.03s13.01-6.59,13.01-6.59v-40.83h7.14v53.02h-7.05v-5.51s-6.23,6.85-14.81,6.85-19.42-6.22-19.42-17.6v-36.76Z"/><path class="cls-1" d="m801.77,245.51h7.05v70.46c0,3.88,7.5,3.35,7.5,3.35v5.41s-7.23,1.72-10.66-1.35-3.88-5.69-3.88-12.65v-65.22Z"/><path class="cls-1" d="m793.51,315.97c-3.8,1.42-8.9,2.21-15.78,2.21-17.87,0-27.88-12.6-28.48-29.11-.71-19.57,12.24-31.61,29.06-31.61,6.58,0,11.5,1.03,15.19,2.85v-7.12c-4.83-2.04-10.17-3.17-15.78-3.17-21.84,0-37.66,17.1-37.66,38.19s15.82,38.19,37.66,38.19c5.61,0,10.94-1.14,15.78-3.17v-7.27Z"/></g></svg>