<?xml version="1.0" encoding="UTF-8"?><svg id="Ebene_2" xmlns="http://www.w3.org/2000/svg" viewBox="0 0 1341.69 209.82"><defs><style>.cls-1{fill:#7f7f7f;stroke-width:0px;}</style></defs><g id="Ebene_1-2"><path class="cls-1" d="m270.79,91.69c0-6.4.9-11.7,2.6-15.9,1.8-4.2,4.3-7.4,7.7-9.8,3.4-2.4,7.5-4.1,12.3-5s10.3-1.3,16.4-1.3h31.9c9.6,0,17.3.6,23.1,1.7,5.8,1.1,10.2,3,13.2,5.6s5,6,5.9,10.3c.9,4.2,1.3,9.5,1.2,15.8h-27.1v-2.4c0-3.2-1.1-5.3-3.3-6.5-2.2-1.1-5.3-1.7-9.4-1.7h-29.6c-3.6,0-6.5.4-8.7,1.2-2.2.8-3.9,2-5.1,3.5s-2.1,3.4-2.5,5.6c-.5,2.2-.7,4.6-.7,7.4v9.5c0,3.2.2,5.9.6,8.2.4,2.3,1.2,4.1,2.3,5.5,1.1,1.4,2.7,2.4,4.8,3.1,2,.7,4.6,1,7.8,1h29c3,0,5.5-.1,7.6-.4,2-.2,3.7-.8,4.9-1.7,1.2-.9,2.1-2.1,2.6-3.7s.8-3.8.8-6.5h27.2v8.3c0,3.8-.4,7.2-1.3,10.5s-2.5,6-4.8,8.4c-2.4,2.4-5.7,4.3-9.9,5.7-4.2,1.4-9.8,2.1-16.6,2.1h-43.8c-6.1,0-11.6-.4-16.4-1.3-4.8-.9-8.9-2.5-12.3-5-3.4-2.4-6-5.7-7.7-9.8-1.8-4.1-2.6-9.4-2.6-16l-.1-26.4h0Z"/><path class="cls-1" d="m400.69,91.69c0-6.4.9-11.7,2.6-15.9,1.7-4.2,4.3-7.4,7.7-9.8,3.4-2.4,7.5-4.1,12.3-5s10.3-1.3,16.4-1.3h43.5c6.1,0,11.6.5,16.4,1.3,4.8.9,8.9,2.5,12.3,5,3.4,2.4,6,5.7,7.7,9.8,1.8,4.2,2.6,9.5,2.6,15.9v26.4c0,6.5-.9,11.8-2.6,16-1.8,4.1-4.3,7.4-7.7,9.8-3.4,2.4-7.5,4.1-12.3,5s-10.3,1.3-16.4,1.3h-43.5c-6.1,0-11.6-.4-16.4-1.3-4.8-.9-8.9-2.5-12.3-5-3.4-2.4-6-5.7-7.7-9.8-1.8-4.1-2.6-9.4-2.6-16v-26.4h0Zm27.9,18c0,3.2.2,5.9.6,8.2.4,2.3,1.2,4.1,2.3,5.5,1.1,1.4,2.7,2.4,4.8,3.1,2,.7,4.6,1,7.8,1h34.7c3.2,0,5.8-.3,7.8-1s3.6-1.7,4.8-3.1c1.1-1.4,1.9-3.2,2.3-5.5s.6-5,.6-8.2v-9.5c0-2.8-.2-5.2-.7-7.4-.4-2.2-1.3-4-2.5-5.6-1.2-1.5-2.9-2.7-5.1-3.5s-5.1-1.2-8.7-1.2h-31.8c-3.6,0-6.5.4-8.7,1.2-2.2.8-3.9,2-5.1,3.5s-2.1,3.4-2.5,5.6c-.5,2.2-.7,4.6-.7,7.4l.1,9.5h0Z"/><path class="cls-1" d="m538.69,60.59h74c6.4,0,11.7.8,15.9,2.3,4.2,1.5,7.4,3.7,9.8,6.4,2.4,2.7,4,5.9,5,9.6.9,3.7,1.4,7.7,1.4,12v7.6c0,3.3-.4,6.7-1.2,10s-2.2,6.4-4.1,9.1-4.5,5-7.6,6.7c-3.2,1.7-7.2,2.6-12,2.6h-53.9v22.3h-27.2l-.1-88.6h0Zm27.1,44.3h42.2c3.2,0,5.4-.9,6.8-2.8,1.3-1.8,2-4.1,2-6.7v-3.4c0-3-.8-5.3-2.4-7-1.6-1.6-4.5-2.4-8.7-2.4h-39.9v22.3h0Z"/><path class="cls-1" d="m659.39,60.59h96.9v20.6h-69.7v14.2h66.1v18.3h-66.1v14.2h71.3v21.3h-98.5V60.59h0Z"/><path class="cls-1" d="m774.29,60.59h82c5.2,0,9.5.6,13,1.9,3.4,1.3,6.1,3,8.1,5.3s3.4,5,4.2,8.3c.8,3.2,1.2,6.8,1.2,10.8v5.6c0,2.9-.2,5.6-.6,8-.4,2.4-1.2,4.4-2.3,6.2-1.1,1.8-2.6,3.3-4.6,4.6-2,1.3-4.5,2.3-7.6,3v.2c2,.4,4,1,5.7,1.7,1.8.7,3.4,1.8,4.7,3.2,1.3,1.5,2.4,3.4,3.2,5.7.8,2.3,1.2,5.3,1.2,9v15h-27.2v-10.6c0-4.7-.8-7.9-2.4-9.7-1.6-1.8-4.5-2.7-8.7-2.7h-42.7v23h-27.2V60.59h0Zm27.2,43.6h44.9c3.7,0,6.3-.8,7.8-2.3s2.3-3.9,2.3-7v-2.9c0-3.9-1-6.4-3-7.6-2-1.1-5.2-1.7-9.5-1.7h-42.4l-.1,21.5h0Z"/><path class="cls-1" d="m901.19,60.59h42.1l51,64.3h.2V60.59h27.2v88.6h-42.1l-51-64.3h-.2v64.3h-27.2V60.59Z"/><path class="cls-1" d="m1041.49,60.59h27.2v88.6h-27.2V60.59Z"/><path class="cls-1" d="m1086.49,91.69c0-6.4.9-11.7,2.6-15.9,1.7-4.2,4.3-7.4,7.7-9.8,3.4-2.4,7.5-4.1,12.3-5s10.3-1.3,16.4-1.3h31.9c9.6,0,17.3.6,23.1,1.7,5.8,1.1,10.2,3,13.2,5.6s5,6,5.9,10.3c.9,4.2,1.3,9.5,1.2,15.8h-27.2v-2.4c0-3.2-1.1-5.3-3.3-6.5-2.2-1.1-5.3-1.7-9.4-1.7h-29.6c-3.6,0-6.5.4-8.7,1.2-2.2.8-3.9,2-5.1,3.5s-2.1,3.4-2.5,5.6-.7,4.6-.7,7.4v9.5c0,3.2.2,5.9.6,8.2.4,2.3,1.2,4.1,2.3,5.5,1.1,1.4,2.7,2.4,4.8,3.1,2,.7,4.6,1,7.8,1h29c3,0,5.5-.1,7.6-.4,2-.2,3.7-.8,4.9-1.7,1.2-.9,2.1-2.1,2.6-3.7s.8-3.8.8-6.5h27.2v8.3c0,3.8-.4,7.2-1.3,10.5-.9,3.2-2.5,6-4.8,8.4-2.4,2.4-5.7,4.3-9.9,5.7-4.2,1.4-9.8,2.1-16.6,2.1h-43.8c-6.1,0-11.6-.4-16.4-1.3-4.8-.9-8.9-2.5-12.3-5-3.4-2.4-6-5.7-7.7-9.8-1.8-4.1-2.6-9.4-2.6-16v-26.4h0Z"/><path class="cls-1" d="m1257.59,60.59h35.4l48.7,88.6h-30.2l-8.4-15.7h-55l-7.9,15.7h-30.3l47.7-88.6Zm.5,53.9h34.7l-17.6-33.3-17.1,33.3Z"/><path class="cls-1" d="m58.69,66.39c34.2,19.6,68.1,24.9,75.6,11.8,7.6-13.1-14.1-39.6-48.3-59.2C51.69-.61,17.89-5.91,10.29,7.19c-7.5,13.1,14.2,39.6,48.4,59.2"/><path class="cls-1" d="m60.79,199.19c43.8,18.9,89,11.9,100.9-15.5s-14.1-65-57.9-83.8c-43.9-18.9-89.1-12-100.9,15.5-11.9,27.4,14,65,57.9,83.8"/><path class="cls-1" d="m198.29,175.79c16.2,18.5,36.7,27.2,45.7,19.3,9.1-7.9,3.3-29.3-12.9-47.8s-36.7-27.2-45.7-19.3c-9.1,7.8-3.3,29.2,12.9,47.8"/><path class="cls-1" d="m170.69,98.79c15.8,13.9,33,20.1,38.5,13.9s-2.9-22.5-18.7-36.4-33-20.1-38.5-13.9,2.9,22.5,18.7,36.4"/></g></svg>