<?xml version="1.0" encoding="UTF-8"?><svg id="Ebene_2" xmlns="http://www.w3.org/2000/svg" viewBox="0 0 240.38 102.91"><defs><style>.cls-1{fill:#7a7a7a;}.cls-1,.cls-2,.cls-3{stroke-width:0px;}.cls-2{fill:#f8f8f8;}.cls-3{fill:#afafaf;}</style></defs><g id="Ebene_1-2"><rect class="cls-2" width="240.38" height="102.91" rx="6.19" ry="6.19"/><path class="cls-3" d="m164.1,76.41c-.83,0-1.62.19-2.34.56-.73.38-1.34.92-1.85,1.63-.5.71-.84,1.56-1.01,2.54-.07.43-.11.8-.11,1.1,0,1.14.33,2.03,1,2.69.67.66,1.54.98,2.62.98.81,0,1.58-.19,2.32-.58.74-.39,1.37-.94,1.88-1.66.51-.72.85-1.55,1.03-2.5.07-.4.11-.76.11-1.08,0-1.12-.34-2.02-1.01-2.68-.68-.66-1.55-.99-2.63-.99Z"/><path class="cls-3" d="m128.3,74.44c-.46-.43-1.16-.65-2.1-.65h-2.88v5.05h2.88c.94,0,1.64-.23,2.1-.68.46-.45.69-1.08.69-1.89s-.23-1.4-.69-1.84Z"/><path class="cls-3" d="m207.67,76.39c-.73,0-1.44.16-2.12.48-.68.32-1.27.79-1.77,1.42-.5.63-.85,1.4-1.04,2.29h8.27c.07-.4.11-.74.11-1.01,0-1.02-.32-1.81-.97-2.35-.65-.55-1.48-.82-2.48-.82Z"/><path class="cls-3" d="m151.82,73.18h-3.04l-1.08,6.2h3.04c2.36,0,3.72-1.02,4.08-3.07.06-.37.09-.64.09-.8,0-1.55-1.03-2.33-3.09-2.33Z"/><path class="cls-3" d="m0,57.26v39.46C0,100.14,2.77,102.91,6.19,102.91h228c3.42,0,6.19-2.77,6.19-6.19v-39.46H0Zm32.32,30.88l-1.13-3.28h-6.85l-1.13,3.28h-3.62l6.19-17.23h4.02l6.19,17.23h-3.65Zm22.34-6.56c-.23,1.2-.72,2.31-1.48,3.33-.76,1.02-1.73,1.84-2.92,2.45-1.19.62-2.53.92-4.01.92-1.66,0-3.16-.37-4.5-1.12-1.34-.75-2.39-1.79-3.16-3.12-.76-1.33-1.15-2.84-1.15-4.54s.38-3.21,1.15-4.55c.76-1.34,1.82-2.38,3.16-3.13,1.34-.75,2.83-1.12,4.47-1.12,1.94,0,3.62.47,5.05,1.42,1.43.95,2.42,2.27,2.96,3.98h-3.97c-.39-.72-.94-1.27-1.63-1.65s-1.5-.57-2.42-.57c-1.02,0-1.92.23-2.71.69s-1.41,1.12-1.85,1.97-.67,1.84-.67,2.96.23,2.15.68,3.01,1.08,1.51,1.89,1.97c.81.46,1.74.69,2.81.69,1.31,0,2.39-.35,3.23-1.05.84-.7,1.39-1.67,1.65-2.92h-5.92v-2.64h9.32v3.01Zm12.55-7.86h-6.53v4.31h5.79v2.74h-5.79v4.56h6.53v2.81h-9.98v-17.23h9.98v2.81Zm17.85,14.42h-3.45l-7.81-11.81v11.81h-3.45v-17.23h3.45l7.81,11.83v-11.83h3.45v17.23Zm15.11-14.42h-4.59v14.42h-3.45v-14.42h-4.59v-2.79h12.62v2.79Zm16.37,7.84c0,1.46-.32,2.7-.95,3.71-.63,1.01-1.48,1.77-2.54,2.28-1.06.51-2.24.76-3.54.76s-2.45-.25-3.49-.76c-1.04-.51-1.87-1.27-2.48-2.28-.61-1.01-.91-2.25-.91-3.71v-10.63h3.45v10.65c0,1.17.3,2.06.91,2.67.61.62,1.46.92,2.56.92s1.98-.31,2.59-.92c.61-.62.91-1.51.91-2.67v-10.65h3.48v10.63Zm12.2,6.58l-3.8-6.71h-1.63v6.71h-3.45v-17.21h6.46c1.33,0,2.47.23,3.4.7.94.47,1.64,1.1,2.11,1.9.47.8.7,1.69.7,2.67,0,1.13-.33,2.16-.99,3.07s-1.64,1.54-2.93,1.89l4.12,6.98h-3.99Zm27.63-11.83c-.23,1.29-.84,2.34-1.83,3.13-.99.79-2.34,1.19-4.04,1.19h-3.04l-1.12,6.43h-1.51l2.66-15.09h4.56c1.48,0,2.59.31,3.33.93.73.62,1.1,1.45,1.1,2.5,0,.33-.03.63-.09.91Zm11.75,10.75h-1.51l.45-2.61c-.49.81-1.19,1.47-2.1,2s-1.93.79-3.06.79c-.94,0-1.76-.19-2.46-.58s-1.25-.94-1.64-1.65c-.39-.71-.58-1.55-.58-2.52,0-.42.04-.86.13-1.34.22-1.21.65-2.27,1.3-3.18.65-.91,1.44-1.62,2.39-2.12.94-.5,1.95-.74,3.03-.74s2.04.26,2.76.78c.72.52,1.19,1.18,1.4,1.99l.45-2.59h1.51l-2.07,11.79Zm10.86-10.43h-.43c-1.04,0-1.93.27-2.68.8-.75.53-1.27,1.41-1.55,2.63l-1.23,7h-1.51l2.07-11.79h1.51l-.41,2.35c.47-.82,1.09-1.45,1.86-1.9.76-.45,1.65-.67,2.66-.67l-.28,1.58Zm7.47-.09h-3.26l-1.3,7.32c-.04.26-.06.48-.06.67,0,.46.13.78.38.96.25.18.67.27,1.24.27h1.38l-.24,1.3h-1.62c-.89,0-1.56-.17-2.01-.52-.45-.34-.67-.91-.67-1.71,0-.32.03-.64.09-.97l1.3-7.32h-1.64l.24-1.27h1.64l.52-2.96h1.51l-.52,2.96h3.26l-.24,1.27Zm12.18,3.61l-1.23,6.91h-1.49l1.19-6.74c.06-.33.09-.68.09-1.06,0-.95-.26-1.67-.78-2.16s-1.25-.73-2.18-.73c-1.14,0-2.11.36-2.92,1.08-.81.72-1.33,1.78-1.58,3.17v-.07l-1.14,6.5h-1.51l2.07-11.79h1.51l-.37,2.03c.5-.72,1.14-1.27,1.92-1.66.78-.39,1.62-.58,2.53-.58,1.21,0,2.18.33,2.9.98.73.66,1.09,1.61,1.09,2.86,0,.46-.04.88-.11,1.25Zm13.95.39c-.09.43-.17.82-.26,1.17h-9.78c-.04.27-.06.53-.06.78,0,1.11.33,1.96,1,2.57s1.52.91,2.56.91,1.86-.24,2.61-.71c.75-.48,1.3-1.12,1.64-1.92h1.62c-.49,1.15-1.27,2.09-2.34,2.82-1.07.73-2.32,1.09-3.75,1.09s-2.65-.42-3.53-1.26c-.89-.84-1.33-1.99-1.33-3.44,0-.43.04-.88.13-1.36.22-1.22.65-2.3,1.31-3.22.65-.92,1.46-1.63,2.43-2.12.96-.49,2.01-.73,3.13-.73.99,0,1.84.19,2.55.57.71.38,1.24.9,1.61,1.57.37.66.55,1.42.55,2.27,0,.39-.03.73-.09,1.04Zm9-3.91h-.43c-1.04,0-1.93.27-2.68.8-.75.53-1.27,1.41-1.55,2.63l-1.23,7h-1.51l2.07-11.79h1.51l-.41,2.35c.47-.82,1.09-1.45,1.86-1.9.76-.45,1.65-.67,2.66-.67l-.28,1.58Z"/><polygon class="cls-3" points="25.27 82.1 30.25 82.1 27.76 74.9 25.27 82.1"/><path class="cls-1" d="m147.76,27.75c0-3.56-.01-7.11,0-10.67,0-1.92.81-2.97,2.24-2.88,1.83.12,2.18,1.36,2.17,2.94-.03,6.73.03,13.46-.04,20.19-.02,1.76.51,2.56,2.36,2.51,3.24-.08,6.48,0,9.71-.01,1.6,0,2.44-.7,2.41-2.44-.06-2.98.03-5.97.02-8.95,0-2.28-.49-2.76-2.83-2.79-2.54-.03-5.08.05-7.62.05-1.89,0-3.04-.85-2.92-2.23.16-1.76,1.34-2.23,2.96-2.2,2.79.06,5.59-.02,8.38.03,3.93.06,6.42,2.51,6.49,6.45.06,3.43.02,6.86-.05,10.28-.06,3.41-2.34,6-5.77,6.15-4.05.18-8.13.16-12.18-.01-3.35-.14-5.19-2.17-5.28-5.56-.1-3.62-.02-7.24-.02-10.85,0,0-.01,0-.02,0Z"/><path class="cls-1" d="m59.09,44.27c-1.97,0-3.94.04-5.9,0-3.86-.09-6.3-2.53-6.33-6.35-.03-3.17-.04-6.35,0-9.52.07-4.56,2.7-7.14,7.29-7.18,2.92-.03,5.84-.11,8.76-.07,6.07.08,9.45,6.17,6.37,11.43-1.17,2-3.09,2.81-5.28,2.87-2.98.09-5.96-.02-8.95-.02-1.57,0-2.7-.66-2.65-2.29.05-1.63,1.21-2.19,2.78-2.16,2.79.05,5.58.01,8.38.01,1.11,0,2.09-.22,2.06-1.63-.03-1.45.52-3.48-1.68-3.62-3.53-.24-7.1-.13-10.65-.03-1.22.03-1.9.95-1.91,2.21-.03,3.36-.04,6.73-.04,10.09,0,1.57,1.1,1.84,2.34,1.84,3.87.01,7.74.02,11.61,0,1.44,0,2.52.43,2.77,1.99.21,1.31-.78,2.38-2.29,2.42-2.22.06-4.44.02-6.66.02Z"/><path class="cls-1" d="m84.71,44.27c-1.71,0-3.43.03-5.14,0-3.52-.08-6.14-2.26-6.47-5.74-.36-3.92-.35-7.87,0-11.79.3-3.43,2.66-5.57,6.06-5.68,3.68-.12,7.37-.06,11.05-.04,1.48,0,2.48.7,2.44,2.29-.04,1.6-1.11,2.16-2.56,2.17-3.18,0-6.35,0-9.53,0-2.65,0-3.15.47-3.17,3.06-.02,2.73-.02,5.46,0,8.19.02,2.44.72,3.17,3.2,3.21,3.24.05,6.48.01,9.72.01,1.54,0,2.45.75,2.39,2.3-.05,1.33-.88,2.04-2.27,2.03-1.91-.01-3.81,0-5.72,0Z"/><path class="cls-1" d="m200.02,27.78c0-3.61.02-7.23-.01-10.84-.01-1.56.52-2.69,2.19-2.72,1.69-.03,2.26,1.17,2.27,2.68.01,5.26-.05,10.53.03,15.79.03,2.26-1,5.11.45,6.61,1.47,1.53,4.34.36,6.59.54.63.05,1.27,0,1.9.01,1.54.01,2.65.61,2.6,2.31-.05,1.59-1.12,2.12-2.59,2.11-2.6-.02-5.2.05-7.8-.03-3.57-.11-5.6-2.24-5.63-5.81-.03-3.55,0-7.1,0-10.65Z"/><path class="cls-1" d="m118.86,34.93c0,2.22,0,4.43,0,6.65,0,1.53-.55,2.67-2.25,2.66-1.7-.01-2.23-1.16-2.24-2.69-.01-4.25-.02-8.49-.05-12.74-.01-2.5-.65-3.15-3.15-3.18-2.47-.02-4.94-.02-7.41,0-1.5.02-2.56-.62-2.61-2.13-.05-1.64,1.05-2.32,2.62-2.31,2.66,0,5.33-.07,7.98.02,4.5.15,6.98,2.74,7.04,7.24.03,2.15,0,4.31,0,6.46.02,0,.04,0,.06,0Z"/><path class="cls-1" d="m95.62,29.01c0-3.99.03-7.98-.02-11.97-.02-1.54.45-2.65,2.1-2.83,1.39-.16,2.37.98,2.38,2.79.03,8.17.02,16.34,0,24.51,0,1.49-.54,2.64-2.24,2.71-1.48.06-2.21-.9-2.21-2.86,0-4.12,0-8.23,0-12.35Z"/><path class="cls-3" d="m39.43,32.45c0-3.23.08-6.46-.04-9.69-.06-1.59.69-1.71,1.94-1.68,1.15.02,1.86.07,1.84,1.6-.09,6.71-.07,13.43-.02,20.14,0,1.21-.39,1.6-1.52,1.45-.96-.12-2.25.48-2.21-1.37.06-3.48.02-6.97.02-10.45h-.01Z"/><path class="cls-3" d="m32.85,32.84c0-3.42.04-6.85-.03-10.27-.02-1.21.45-1.52,1.57-1.48.99.03,1.63.03,1.62,1.38-.07,6.85-.06,13.7,0,20.55,0,1.22-.57,1.29-1.51,1.28-.98,0-1.69-.01-1.66-1.37.08-3.36.03-6.72.02-10.08Z"/><path class="cls-3" d="m30.14,32.83c0,3.3,0,6.6,0,9.9,0,.71.27,1.57-1.02,1.55-1.15-.02-.95-.77-.95-1.43,0-6.79,0-13.58,0-20.37,0-.74-.03-1.4,1.04-1.38,1.13.02.95.78.95,1.45,0,3.43,0,6.85,0,10.28Z"/><path class="cls-3" d="m24.42,32.65c0-3.3-.02-6.6.02-9.9,0-.59-.42-1.6.74-1.58.99.02.66.92.66,1.48.02,6.67.02,13.33-.01,20,0,.58.43,1.63-.75,1.56-1.12-.06-.63-1.07-.63-1.66-.05-3.3-.02-6.6-.02-9.9Z"/><path class="cls-1" d="m209.12,20.96c.62.06,1.28.02,1.86.21.99.32,1.57,1.1,1.51,2.15-.06,1.12-.72,1.92-1.84,2.09-.92.14-1.88.1-2.82.07-1.39-.05-2.31-.76-2.32-2.2,0-1.43.88-2.15,2.28-2.24.44-.03.88,0,1.32,0,0-.02,0-.05,0-.07Z"/><path class="cls-1" d="m144.89,27.71c-.27-4.08-2.63-6.4-6.71-6.61-3.29-.17-6.6-.15-9.89.03-4.13.22-6.51,2.75-6.64,6.87-.09,2.98-.11,5.97,0,8.94.19,4.82,2.81,7.28,7.63,7.33,1.27.01,2.54,0,3.81,0,0-.01,0-.02,0-.03,1.71,0,3.43.09,5.14-.02,4.11-.27,6.58-2.71,6.73-6.81.12-3.23.14-6.48-.07-9.7Zm-4.37,9.82c-.03,1.31-.91,2.08-2.22,2.17-3.35.25-6.71.21-10.06.03-1.51-.08-2.03-1.17-2.09-2.48-.07-1.58-.02-3.17-.02-4.75h-.03c0-1.46.01-2.91,0-4.37-.01-1.62.77-2.54,2.38-2.57,3.16-.05,6.33-.03,9.49-.03,1.65,0,2.49,1.01,2.54,2.5.1,3.16.08,6.33,0,9.49Z"/><path class="cls-1" d="m197.07,27.73c-.29-4.19-2.68-6.45-6.88-6.64-3.23-.15-6.47-.14-9.7.03-3.99.21-6.47,2.66-6.62,6.48-.13,3.23-.13,6.47,0,9.7.18,4.38,2.82,6.85,7.19,6.96,1.46.04,2.92,0,4.38,0v-.03c1.65,0,3.3.09,4.95-.02,4.04-.27,6.5-2.59,6.73-6.6.18-3.28.18-6.6-.05-9.88Zm-4.34,9.65c-.02,1.4-.87,2.23-2.27,2.33-3.35.25-6.71.21-10.06.02-1.52-.08-2.01-1.2-2.06-2.5-.07-1.58-.02-3.17-.02-4.75,0,0-.02,0-.02,0,0-1.52-.02-3.04,0-4.56.02-1.44.78-2.3,2.21-2.33,3.29-.06,6.58-.06,9.88-.02,1.58.02,2.28,1.12,2.32,2.5.09,3.1.08,6.21.03,9.31Z"/></g></svg>