<?xml version="1.0" encoding="UTF-8"?><svg id="Ebene_2" xmlns="http://www.w3.org/2000/svg" viewBox="0 0 1000 500"><defs><style>.cls-1{fill:#7f7f7f;}.cls-1,.cls-2{stroke-width:0px;}.cls-2{fill:#fff;}</style></defs><g id="Ebene_1-2"><path class="cls-2" d="m106,0h894c0,166.67,0,333.33,0,500-298,0-596,0-894,0-.02-2.66-.07-5.33-.07-7.99,0-161.34,0-322.68,0-484.02,0-2.66.05-5.33.07-7.99Zm83.12,317.65c0,25.16.07,50.32-.07,75.48-.03,4.29,1.28,6.23,5.71,5.79,2.31-.23,4.66-.04,6.99-.04q9.06,0,9.06-8.82c0-17.16.1-34.33-.06-51.49-.04-4.07,1.24-5.58,5.43-5.49,10.49.21,21.01.36,31.49-.08,17.3-.73,31.2-8.46,40.68-22.83,19.26-29.15-.42-69.72-35.94-73.01-18.84-1.74-37.94-.62-56.92-1.11-5.15-.13-6.51,1.67-6.47,6.61.21,24.99.09,49.99.1,74.98Zm191.14,66.78c.74,5.02-.13,11.58,2.43,13.45,3.22,2.34,9.24.83,14.05.98.17,0,.33-.02.5,0,2.92.13,4.15-1.17,4.14-4.18-.13-23.15.25-46.31-.37-69.45-.38-14.4-7.35-25.76-19.71-33.45-14.49-9.02-30.17-9.83-46.24-5.74-10.97,2.79-19.13,9.83-25.41,19.06-1.15,1.69-1.8,3.73-2.87,6.02,5.9,2.54,11.17,4.99,16.62,6.97,1.03.37,3.47-.79,4.05-1.88,7.48-14.06,32.26-17.83,45.66-5.29,5.95,5.57,8.42,12.5,7.7,21.12-1.85-.71-3.19-1.28-4.57-1.73-20.46-6.81-40.47-6.76-58.9,5.61-19.4,13.03-20.39,41.5-2.48,56.54,16.24,13.63,43.31,13.18,58.95-1.06,2.29-2.09,4.24-4.56,6.46-6.97Zm433.3-12.66c-5.24-2.21-9.87-3.97-14.32-6.11-3.26-1.58-5.21-1.46-7.05,2.19-3.02,5.99-7.95,10.19-14.28,12.63-20.58,7.95-42.87-4.01-47.64-25.55-1.72-7.75-1.65-7.84,6.2-7.84,24.83,0,49.65-.13,74.47.1,4.98.05,6.61-1.71,6.06-6.36-.43-3.63-.53-7.31-1.04-10.93-5.67-40.4-51.46-60.19-84.3-36.46-21.39,15.46-29.88,47.04-19.75,73.45,9.45,24.64,32.49,38.17,60.4,34.98,18.84-2.15,32.25-12.27,41.23-30.1Zm-200.77-70.03c-.72-5.02.16-11.35-2.42-13.48-2.85-2.36-8.88-.79-13.52-1.08-3.79-.24-5.32,1.17-5.23,5.17.23,10.49.07,21,.07,31.5,0,23.17.07,46.33-.07,69.5-.02,4.02,1.12,5.87,5.35,5.58,3.48-.24,7.02-.28,10.49.01,4.49.38,5.68-1.5,5.63-5.79-.19-18.83-.11-37.67-.06-56.5.03-10.73,3.89-19.94,11.91-27.07,8.17-7.27,17.84-7.61,27.76-4.61,9.16,2.77,13.57,9.79,15.21,18.73.69,3.74.96,7.61.98,11.42.1,19.5.12,39-.02,58.5-.03,3.79,1.03,5.56,5.07,5.32,3.99-.24,8-.11,12-.05,2.79.04,4.32-.85,4.3-4.01-.14-23.83.49-47.69-.43-71.49-.84-21.7-14.49-36.47-34.53-39.12-17.23-2.28-31.44,3.53-42.49,17.48Zm-90.03,38.93h.02c0,8.83-.61,17.71.21,26.47.59,6.3,1.96,13.04,4.95,18.51,7.24,13.27,31.35,19.66,44.97,12.63.96-.5,1.71-3,1.34-4.2-1.22-3.97-2.75-7.89-4.69-11.55-.65-1.23-3.01-2.48-4.35-2.26-14.76,2.43-21.1-2.73-21.14-17.66-.04-14.33,0-28.65,0-42.98q0-12.59,12.62-12.59c14.78,0,14.63,0,14.51-14.82-.03-4.15-1.69-5.16-5.36-5.04-4.99.16-9.99.05-14.99.03q-6.74-.02-6.77-6.54c-.02-7.16-.16-14.33.05-21.49.12-3.94-.97-5.92-5.29-5.6-3.81.28-7.67.21-11.49.02-3.53-.17-4.66,1.37-4.6,4.74.14,7.99-.15,16,.11,23.98.13,4.02-1.27,4.96-5.17,5-17.58.18-14.27-3.43-14.61,15.62,0,.17-.06.4.03.49,1.2,1.2,2.31,3.24,3.65,3.41,3.77.48,7.65.34,11.47.15,3.52-.18,4.65,1.3,4.6,4.7-.15,9.66-.05,19.32-.05,28.98Zm-251.61-226.83c-12.78-11.6-27.06-15.67-43.38-12.86-24.92,4.28-44.17,28.98-41.25,52.91,3.76,30.77,30.45,50.47,61,45,23.31-4.17,39.04-26.02,35.88-49.52-.46-3.41-1.81-4.48-5.1-4.45-12.33.13-24.66.1-36.99.02-3.06-.02-4.46.92-4.6,4.25-.42,9.98-.55,9.98,9.37,9.98,7.43,0,14.87,0,22.24,0,.46,11.22-8.12,21.54-20.12,25.11-16.48,4.91-33.26-1.61-41.84-16.25-8.1-13.83-5.58-32.5,5.91-43.82,13.09-12.9,28.89-13.24,49.58-.79,2.87-2.96,5.84-6.01,9.31-9.59Zm584.77,189.44c0-3.95-.08-7.9.03-11.84.08-2.96-1.21-4.27-4.15-4.21-3.33.07-6.66-.03-9.99-.01-6.56.04-6.6.05-6.6,6.76-.01,29.97,0,59.95,0,89.92q0,15.09,14.87,15c6.82-.04,6.84-.04,6.85-7.03.03-18.82-.18-37.64.12-56.45.26-16.49,12.64-29.24,27.92-29.43,4.01-.05,9.07,1.35,11.73-.56,2.89-2.08,3.54-7.26,5.17-11.09.33-.77.56-1.58.96-2.3,2.11-3.74.54-5.23-3.21-6.17-16.46-4.14-32.74,2.42-43.69,17.43Zm-372.19-161.7c-12.73-8.9-27.56-7.47-38,3.35-11.07,11.48-12.28,29.5-2.74,42.2,4.67,6.22,10.8,10.25,18.43,12.04,8.37,1.96,15.69-.33,22.41-5.59,1.25,10.4-1.71,17.27-8.52,20.34-8.4,3.78-15.14,1.21-24.45-9.56-3.75,1.59-7.61,3.23-11.44,4.86,5.37,14.49,20.68,21.94,36.44,18.39,13.3-3,21.88-13.81,22.14-28.95.32-18.49.15-36.99.11-55.49,0-2.46.97-6.14-3.28-5.79-3.88.32-9.35-2.93-11.1,4.21Zm-38.15,162.37c-.58-5.85.71-12.83-2.08-15.4-2.89-2.67-9.72-1.02-14.83-1.33-3.26-.2-4.22,1.22-4.2,4.46.14,30.79.09,61.58.18,92.38.02,4.74-1.23,11.33,1.28,13.71,2.63,2.49,9.11.74,13.88,1.18,4.84.44,6.29-1.52,6.24-6.27-.21-18.97-.22-37.95,0-56.92.16-13.83,8.41-24.71,21.75-28.32,5.03-1.36,10.5-1.4,15.77-1.46,3.42-.04,4.9-.94,4.71-4.49-.2-3.65-.3-7.34.03-10.98.41-4.55-1.66-5.67-5.8-5.71-15.53-.15-28.31,4.89-36.92,19.18Zm-89.45-136.28c.02-18.11-14.1-32.23-32.37-32.36-18-.13-32.34,14.13-32.52,32.33-.17,17.78,14.4,32.3,32.51,32.38,18.12.08,32.36-14.14,32.38-32.36Zm196.61,9.63c13.89-5.78,27.77-11.56,41.55-17.29-3.42-15.54-17.17-26.1-31.24-24.51-15.4,1.74-25.63,12.08-27.8,28.1-1.96,14.44,6.43,28.85,19.84,34.09,14.5,5.66,32.14.1,38.67-12.62-3.47-2.31-6.99-4.66-10.4-6.93-12.74,11.54-25.28,11.24-30.62-.83Zm-155.8-41.52c-18.51-.15-32.67,13.51-32.8,31.64-.14,17.9,14.29,32.39,32.31,32.45,17.73.06,32.05-14.09,32.33-31.96.28-17.83-13.75-31.99-31.84-32.13Zm114.22,14.72c0,13.14,0,26.28,0,39.42q0,8.12,8.25,8.09c6.55-.03,6.57-.03,6.57-6.67,0-26.11.03-52.22,0-78.33-.02-10.37.97-9.06-9.43-9.38-4.18-.13-5.5,1.41-5.45,5.47.17,13.8.07,27.61.06,41.41Z"/><path class="cls-1" d="m106,0c-.02,2.66-.07,5.33-.07,7.99,0,161.34,0,322.68,0,484.02,0,2.66.05,5.33.07,7.99H0C0,333.33,0,166.67,0,0c35.33,0,70.67,0,106,0Z"/><path class="cls-1" d="m189.12,317.65c0-24.99.11-49.99-.1-74.98-.04-4.94,1.32-6.75,6.47-6.61,18.98.49,38.08-.64,56.92,1.11,35.52,3.29,55.2,43.86,35.94,73.01-9.49,14.36-23.38,22.1-40.68,22.83-10.48.44-20.99.29-31.49.08-4.19-.08-5.47,1.42-5.43,5.49.16,17.16.07,34.32.06,51.49q0,8.82-9.06,8.82c-2.33,0-4.68-.19-6.99.04-4.43.44-5.74-1.5-5.71-5.79.15-25.16.07-50.32.07-75.48Zm42.92-60.72c-5.49,0-10.98.1-16.46-.04-3.36-.09-4.81,1.16-4.79,4.63.09,15.63.08,31.26,0,46.89-.02,3.17,1.16,4.45,4.4,4.41,10.31-.13,20.62.19,30.93-.11,15.64-.45,27.92-13.13,27.76-28.25-.15-15.15-12.6-27.24-28.38-27.51-4.49-.08-8.98-.01-13.47-.02Z"/><path class="cls-1" d="m380.26,384.43c-2.22,2.41-4.16,4.88-6.46,6.97-15.63,14.24-42.71,14.69-58.95,1.06-17.91-15.04-16.92-43.5,2.48-56.54,18.42-12.37,38.44-12.42,58.9-5.61,1.38.46,2.72,1.03,4.57,1.73.72-8.63-1.75-15.55-7.7-21.12-13.4-12.54-38.17-8.77-45.66,5.29-.58,1.1-3.02,2.26-4.05,1.88-5.45-1.98-10.72-4.43-16.62-6.97,1.07-2.29,1.72-4.33,2.87-6.02,6.28-9.24,14.44-16.27,25.41-19.06,16.07-4.09,31.75-3.28,46.24,5.74,12.36,7.69,19.33,19.05,19.71,33.45.62,23.14.24,46.3.37,69.45.02,3-1.22,4.31-4.14,4.18-.17,0-.33.01-.5,0-4.81-.15-10.83,1.36-14.05-.98-2.56-1.86-1.7-8.43-2.43-13.45Zm-32.87-.76c15.17-.95,29.74-12.6,33.1-26.86,1.05-4.46-.05-7.34-4.41-9.08-12.22-4.87-24.75-5.67-37-1.17-4.48,1.65-8.76,5.6-11.57,9.6-5.77,8.19-3.01,18.3,5.89,22.87,4.32,2.22,9.31,3.14,13.99,4.64Z"/><path class="cls-1" d="m813.56,371.77c-8.98,17.83-22.39,27.95-41.23,30.1-27.91,3.19-50.95-10.34-60.4-34.98-10.13-26.41-1.64-58,19.75-73.45,32.83-23.73,78.63-3.94,84.3,36.46.51,3.62.6,7.3,1.04,10.93.55,4.65-1.09,6.41-6.06,6.36-24.82-.23-49.65-.11-74.47-.1-7.85,0-7.91.09-6.2,7.84,4.77,21.54,27.06,33.49,47.64,25.55,6.32-2.44,11.26-6.64,14.28-12.63,1.84-3.65,3.79-3.77,7.05-2.19,4.44,2.15,9.08,3.9,14.32,6.11Zm-20.05-42.54c-.1-14.44-14.06-25.81-31.06-26-15.13-.17-30.1,12.3-30.74,26h61.8Z"/><path class="cls-1" d="m612.79,301.75c11.05-13.96,25.26-19.76,42.49-17.48,20.03,2.65,33.69,17.42,34.53,39.12.92,23.8.3,47.66.43,71.49.02,3.16-1.51,4.05-4.3,4.01-4-.06-8.01-.19-12,.05-4.03.24-5.09-1.53-5.07-5.32.14-19.5.11-39,.02-58.5-.02-3.81-.29-7.68-.98-11.42-1.64-8.94-6.06-15.96-15.21-18.73-9.92-3-19.59-2.66-27.76,4.61-8.02,7.14-11.88,16.34-11.91,27.07-.05,18.83-.13,37.67.06,56.5.04,4.29-1.15,6.17-5.63,5.79-3.47-.3-7.01-.26-10.49-.01-4.23.3-5.38-1.55-5.35-5.58.14-23.17.07-46.33.07-69.5,0-10.5.15-21-.07-31.5-.09-4,1.44-5.41,5.23-5.17,4.64.29,10.67-1.27,13.52,1.08,2.58,2.13,1.7,8.46,2.42,13.48Z"/><path class="cls-1" d="m522.76,340.67c0-9.66-.1-19.32.05-28.98.05-3.4-1.08-4.88-4.6-4.7-3.82.19-7.7.33-11.47-.15-1.34-.17-2.45-2.21-3.65-3.41-.09-.09-.03-.32-.03-.49.34-19.05-2.96-15.44,14.61-15.62,3.9-.04,5.3-.98,5.17-5-.26-7.99.03-15.99-.11-23.98-.06-3.37,1.07-4.91,4.6-4.74,3.82.19,7.68.26,11.49-.02,4.33-.32,5.41,1.66,5.29,5.6-.21,7.16-.07,14.32-.05,21.49q.02,6.51,6.77,6.54c5,.02,10,.13,14.99-.03,3.66-.12,5.32.89,5.36,5.04.12,14.82.27,14.82-14.51,14.82q-12.62,0-12.62,12.59c0,14.33-.03,28.65,0,42.98.04,14.93,6.38,20.1,21.14,17.66,1.34-.22,3.7,1.04,4.35,2.26,1.94,3.66,3.47,7.58,4.69,11.55.37,1.2-.38,3.7-1.34,4.2-13.62,7.04-37.72.64-44.97-12.63-2.99-5.47-4.36-12.21-4.95-18.51-.82-8.75-.21-17.64-.21-26.47h-.02Z"/><path class="cls-1" d="m271.15,113.84c-3.47,3.58-6.44,6.63-9.31,9.59-20.69-12.45-36.49-12.11-49.58.79-11.49,11.32-14.01,30-5.91,43.82,8.58,14.64,25.35,21.15,41.84,16.25,12.01-3.57,20.58-13.9,20.12-25.11-7.37,0-14.81,0-22.24,0-9.92,0-9.8,0-9.37-9.98.14-3.34,1.54-4.27,4.6-4.25,12.33.08,24.66.1,36.99-.02,3.29-.03,4.64,1.04,5.1,4.45,3.17,23.5-12.57,45.35-35.88,49.52-30.54,5.47-57.24-14.23-61-45-2.92-23.93,16.33-48.63,41.25-52.91,16.32-2.81,30.6,1.26,43.38,12.86Z"/><path class="cls-1" d="m855.91,303.28c10.95-15,27.23-21.56,43.69-17.43,3.75.94,5.32,2.43,3.21,6.17-.41.72-.64,1.54-.96,2.3-1.63,3.83-2.28,9.01-5.17,11.09-2.67,1.92-7.73.51-11.73.56-15.28.19-27.66,12.94-27.92,29.43-.3,18.81-.09,37.63-.12,56.45-.01,6.98-.03,6.98-6.85,7.03q-14.87.09-14.87-15c0-29.97,0-59.95,0-89.92,0-6.71.04-6.73,6.6-6.76,3.33-.02,6.66.08,9.99.01,2.95-.06,4.23,1.26,4.15,4.21-.1,3.95-.03,7.9-.03,11.84Z"/><path class="cls-1" d="m483.72,141.57c1.75-7.14,7.22-3.89,11.1-4.21,4.25-.35,3.28,3.33,3.28,5.79.04,18.5.21,37-.11,55.49-.27,15.14-8.84,25.95-22.14,28.95-15.77,3.56-31.07-3.89-36.44-18.39,3.82-1.62,7.69-3.27,11.44-4.86,9.31,10.77,16.05,13.35,24.45,9.56,6.82-3.07,9.78-9.94,8.52-20.34-6.72,5.26-14.03,7.55-22.41,5.59-7.64-1.79-13.76-5.82-18.43-12.04-9.54-12.7-8.33-30.73,2.74-42.2,10.44-10.82,25.27-12.25,38-3.35Zm1.47,26.16c-.02-11.04-7.18-19.31-16.71-19.28-9.64.04-17.5,8.8-17.45,19.45.04,10.47,7.7,18.81,17.35,18.91,9.7.1,16.82-7.99,16.81-19.09Z"/><path class="cls-1" d="m445.57,303.94c8.61-14.29,21.39-19.33,36.92-19.18,4.14.04,6.22,1.16,5.8,5.71-.33,3.63-.23,7.33-.03,10.98.2,3.55-1.28,4.45-4.71,4.49-5.28.06-10.74.1-15.77,1.46-13.34,3.61-21.58,14.49-21.75,28.32-.22,18.97-.21,37.95,0,56.92.05,4.75-1.4,6.71-6.24,6.27-4.77-.43-11.24,1.31-13.88-1.18-2.51-2.37-1.26-8.97-1.28-13.71-.1-30.79-.05-61.59-.18-92.38-.01-3.24.94-4.65,4.2-4.46,5.11.31,11.94-1.34,14.83,1.33,2.79,2.57,1.5,9.56,2.08,15.4Z"/><path class="cls-1" d="m356.11,167.66c-.02,18.21-14.25,32.44-32.38,32.36-18.11-.08-32.68-14.6-32.51-32.38.18-18.2,14.51-32.46,32.52-32.33,18.27.13,32.38,14.25,32.37,32.36Zm-32.02-18.84c-10.16-.15-17.89,7.81-18.01,18.52-.12,10.71,7.41,19.13,17.33,19.4,9.75.26,17.77-8.06,18.07-18.75.3-10.64-7.3-19.02-17.39-19.16Z"/><path class="cls-1" d="m552.73,177.28c5.34,12.07,17.88,12.37,30.62.83,3.4,2.27,6.93,4.62,10.4,6.93-6.53,12.72-24.18,18.29-38.67,12.62-13.41-5.24-21.8-19.65-19.84-34.09,2.17-16.01,12.41-26.36,27.8-28.1,14.07-1.59,27.82,8.97,31.24,24.51-13.77,5.73-27.66,11.51-41.55,17.29Zm24.43-22.51c-4.33-6.24-10.25-7.82-16.76-5.19-6.58,2.65-10.67,9.08-9.69,16.13,8.78-3.63,17.4-7.2,26.44-10.94Z"/><path class="cls-1" d="m396.93,135.76c18.09.14,32.12,14.3,31.84,32.13-.28,17.87-14.6,32.02-32.33,31.96-18.02-.06-32.45-14.55-32.31-32.45.14-18.13,14.3-31.79,32.8-31.64Zm-18.15,31.95c.03,10.87,7.52,19.07,17.5,19.17,10.14.1,17.91-8.32,17.87-19.35-.04-10.84-7.61-19.12-17.56-19.2-10.18-.08-17.86,8.27-17.82,19.38Z"/><path class="cls-1" d="m511.16,150.48c0-13.8.11-27.61-.06-41.41-.05-4.06,1.27-5.6,5.45-5.47,10.4.32,9.41-.99,9.43,9.38.04,26.11.02,52.22,0,78.33,0,6.65-.03,6.65-6.57,6.67q-8.24.03-8.25-8.09c0-13.14,0-26.28,0-39.42Z"/><path class="cls-2" d="m232.04,256.93c4.49,0,8.98-.06,13.47.02,15.78.27,28.22,12.36,28.38,27.51.15,15.12-12.13,27.8-27.76,28.25-10.3.3-20.62-.02-30.93.11-3.24.04-4.42-1.23-4.4-4.41.08-15.63.09-31.26,0-46.89-.02-3.48,1.43-4.72,4.79-4.63,5.48.14,10.97.04,16.46.04Z"/><path class="cls-2" d="m347.38,383.67c-4.69-1.51-9.67-2.42-13.99-4.64-8.9-4.58-11.66-14.68-5.89-22.87,2.82-4,7.1-7.95,11.57-9.6,12.25-4.5,24.78-3.71,37,1.17,4.36,1.74,5.46,4.62,4.41,9.08-3.36,14.26-17.93,25.91-33.1,26.86Z"/><path class="cls-2" d="m793.51,329.24h-61.8c.65-13.7,15.61-26.18,30.74-26,17,.19,30.96,11.56,31.06,26Z"/><path class="cls-2" d="m485.19,167.73c.02,11.09-7.11,19.19-16.81,19.09-9.66-.1-17.31-8.44-17.35-18.91-.04-10.65,7.82-19.41,17.45-19.45,9.53-.04,16.69,8.23,16.71,19.28Z"/><path class="cls-2" d="m324.09,148.81c10.09.14,17.69,8.52,17.39,19.16-.3,10.69-8.32,19.01-18.07,18.75-9.92-.27-17.45-8.69-17.33-19.4.12-10.71,7.85-18.66,18.01-18.52Z"/><path class="cls-2" d="m577.16,154.78c-9.05,3.74-17.66,7.3-26.44,10.94-.98-7.04,3.11-13.47,9.69-16.13,6.51-2.62,12.42-1.05,16.76,5.19Z"/><path class="cls-2" d="m378.78,167.71c-.04-11.11,7.64-19.46,17.82-19.38,9.95.08,17.52,8.36,17.56,19.2.04,11.03-7.74,19.45-17.87,19.35-9.98-.1-17.47-8.3-17.5-19.17Z"/></g></svg>