<?xml version="1.0" encoding="UTF-8"?><svg id="Ebene_2" xmlns="http://www.w3.org/2000/svg" viewBox="0 0 1578.89 292.44"><defs><style>.cls-1{fill:#999;}.cls-1,.cls-2,.cls-3,.cls-4,.cls-5,.cls-6,.cls-7{stroke-width:0px;}.cls-2{fill:#606060;}.cls-3{fill:#646464;}.cls-4{fill:#777;}.cls-5{fill:#fff;}.cls-6{fill:#fdfdfd;}.cls-7{fill:#929292;}</style></defs><g id="Ebene_1-2"><path class="cls-6" d="m1578.89,292.44H0V0h1578.89v292.44Z"/><path class="cls-1" d="m229.35,51.98c1.5.48,2.52,1.6,3.6,2.65,14.23,13.81,24.44,30.09,30.13,49.13.61,2.04,1.61,3.61,3.38,4.92,19.97,14.79,31.09,34.79,33.13,59.37,1.87,22.55-4.88,42.75-19.84,59.9-13.8,15.83-31.32,24.89-52.13,27.56-2.43.31-4.91.38-7.37.38-42.97-.02-85.95-.06-128.92-.11-1.77,0-3.57.12-5.26-.62,1.51-2.84,4.28-2.05,6.58-2.07,16.54-.14,33.09-.06,49.63-.07,10.23,0,10.93-.71,10.94-10.95,0-9.84-.03-19.68.02-29.52.01-2.17-.18-4.39.7-6.47,1.4-2.89,4.13-2.29,6.49-2.3,16.84-.11,33.68-.04,50.51-.05,5.06,0,10.1.1,15.05-1.44,12.21-3.81,20.98-15.43,20.9-27.96-.08-12.77-8.69-24.12-21.1-27.81-1.44-.43-2.91-.78-4.39-1.07-5.17-1-5.67-1.37-5.64-6.65.11-18.93-6.4-35.04-20.15-48.14-.69-.66-1.37-1.34-1.83-2.19-.56-2.3.72-3.93,2.16-5.39,9.63-9.79,19.37-19.47,29.11-29.15,1.21-1.2,2.52-2.06,4.3-1.94Z"/><path class="cls-3" d="m504.24,131.82c11.23,0,22.47-.02,33.7.01,3.55,0,3.89.18,4.18,3.52,1.48,17.09.11,33.69-8.96,48.84-11.76,19.65-29.14,31.43-51.54,35.18-20.82,3.48-40.8.28-58.75-11.36-20.63-13.38-34.32-31.82-37.76-56.59-3.58-25.75,3.18-48.52,21.41-67.58,12.19-12.75,26.6-21.54,44.03-24.73,25.09-4.58,47.89.55,67.72,17.1.84.7,1.61,1.48,2.45,2.2,1.16.99,1.29,1.96.16,3.1-4.25,4.27-8.51,8.54-12.69,12.88-1.61,1.67-2.65.47-3.77-.51-6.41-5.58-13.71-9.54-21.91-11.72-39.05-10.38-68.9,18.19-73.38,46.91-4.85,31.15,13.27,59.57,43.41,67,19.82,4.89,37.82.52,53.32-12.81,7.67-6.59,11.56-15.49,13.39-25.3.58-3.12.13-3.62-3.1-3.65-7.81-.07-15.62-.03-23.43-.03-7.26,0-14.52.03-21.78-.02-3.87-.03-4-.17-4.04-3.9-.05-4.79-.04-9.59,0-14.38.03-4.11.06-4.16,4.07-4.17,11.1-.03,22.19,0,33.29,0Z"/><path class="cls-7" d="m43.21,238.71c-8.24-6.08-15.16-13.44-20.18-22.34-16.43-29.11-15.92-58.09,1.45-86.63,4.79-7.88,11.21-14.44,18.52-20.09,1.51-1.17,3.1-2.27,3.6-4.28,12.69-9.79,27.21-14.01,43.06-14.22,6.41-.09,12.81-.09,19.15.98,2.01,1.39,4.46,1.06,6.67,1.7,15.51,4.51,28.6,12.91,39.48,24.75,4.73,5.15,4.6,6.31-.24,11.2-9.53,9.63-19.11,19.2-28.74,28.73-4.45,4.4-5.5,4.28-9.26-.67-10.56-13.86-27.52-17.17-40.96-7.99-17.08,11.67-16.65,37.19.79,48.63,1.85,1.21,4.53,1.69,4.79,4.6-.03,1.05-.71,1.7-1.41,2.38-10.44,10.24-20.68,20.69-31.09,30.96-1.56,1.54-3.03,3.31-5.63,2.28Z"/><path class="cls-3" d="m857.54,127.23c.94-2.09.58-3.74.64-5.33.06-1.64.64-2.61,2.4-2.61,5.75,0,11.5,0,17.26.01,1.5,0,2.26.77,2.27,2.28,0,1.23.04,2.46.04,3.7.04,30.53.06,61.07.11,91.6.02,9.66-2.37,18.69-7.07,27.11-8,14.36-20.72,21.51-36.61,23.22-12.62,1.36-24.56-.94-35.05-8.7-6.95-5.15-12.42-11.53-16.29-19.26-1.34-2.67-1.3-2.77,1.39-3.92,4.78-2.05,9.59-4.04,14.41-5.99,2.71-1.1,2.77-1.06,4.35,1.69,2.06,3.6,4.56,6.82,7.75,9.5,9.69,8.13,24.61,8.54,34.69.91,6.05-4.58,8.79-11.08,10.02-18.27.79-4.58.17-9.25.27-13.8-1.75-.48-2.26.75-2.98,1.44-7.15,6.76-15.67,9.68-25.44,9.56-29.57-.38-49.44-26.35-50.05-49.22-.57-21.75,8.21-38.36,26.72-49.29,13.24-7.82,27.42-8.92,41.63-1.75,3.46,1.74,6.33,4.25,9.54,7.12Z"/><path class="cls-2" d="m109.07,93.95c-7.06-.51-14.12-1.08-21.22-.85-11.97.38-23.06,3.83-33.59,9.31-1.69.88-3.34,1.84-5,2.8-.88.51-1.73.81-2.66.15,4.62-17.11,13.14-32.08,25.09-45.09,18.58-20.24,41.59-32.35,68.81-35.72,32.95-4.08,62.28,4.9,87.79,26.19.41.34.71.82,1.07,1.24-1.19,1.31-2.33,2.67-3.58,3.93-9.25,9.28-18.52,18.52-27.78,27.8-1.15,1.16-2.22,2.4-3.33,3.61-2.45,1.74-4.11-.33-5.82-1.38-8.49-5.21-17.43-8.88-27.5-9.81-16.12-1.49-30.47,2.73-43.39,12.34-2.79,2.08-5.01,5.16-8.89,5.49Z"/><path class="cls-3" d="m1549.57,204.88c-1.04-.06-1.35.83-1.84,1.42-9.69,11.46-22.25,15.5-36.76,13.72-15.83-1.94-26.73-11.18-34.22-24.73-10.17-18.39-9.37-46.68,8.74-65.15,13.08-13.34,33.14-17.05,49.95-8.98,4.51,2.16,8.39,5.11,11.67,8.9.76.88,1.18,2.18,2.78,2.55,0-3.28.11-6.49-.02-9.68-.61-14.91-.16-29.83-.24-44.74-.01-2.85.24-3,3.1-3.05,4.11-.07,8.22.05,12.32-.04,2.11-.05,3.03.81,2.92,2.9-.05.96,0,1.92,0,2.87,0,43.52,0,87.05,0,130.57,0,6.57.16,5.76-5.73,5.82-2.19.02-4.38.01-6.57,0-5.82-.03-5.44.45-5.46-5.66,0-1.64.02-3.29-.03-4.93-.02-.64.16-1.39-.6-1.79Z"/><path class="cls-3" d="m770.14,168.34c.69,29.5-23.59,52.1-52.5,52.11-29.74.01-52.63-22.98-52.57-52.61.06-29.32,23.1-52.32,52.65-52.13,30.16.19,53.33,23.78,52.43,52.62Z"/><path class="cls-3" d="m603.21,115.77c29.79.07,52.59,22.94,52.49,52.64-.1,29.28-23.26,52.2-52.71,52.06-28.3-.13-53-22.07-52.48-53.09.49-29.05,23.24-51.68,52.69-51.61Z"/><path class="cls-3" d="m930.1,168.3c-.36-14.68,4.3-26.87,13.72-37.33,17.99-19.99,54.67-22.58,73.87,5.1,3.38,4.88,5.95,10.15,8.05,15.67,1.18,3.09,1.17,3.16-2.03,4.49-11.51,4.77-23.04,9.49-34.56,14.23-9.62,3.96-19.25,7.92-28.87,11.88-.76.31-1.51.65-2.25,1-.91.44-1.13,1.15-.66,2.02.52.96,1.03,1.93,1.65,2.83,8.18,11.94,24.86,15.14,38.14,7.34,3.59-2.11,6.69-4.8,9.06-8.22,1.09-1.58,2.05-1.83,3.67-.69,4.26,2.99,8.64,5.8,12.92,8.77,2.44,1.69,2.48,1.86.65,4.14-9.38,11.74-21.25,19.17-36.43,20.8-23.58,2.53-45.67-11.09-53.89-33.26-2.31-6.24-3.31-12.7-3.05-18.76Z"/><path class="cls-3" d="m1144.24,202.97c19.43-.17,33.41-6.02,44.78-17.97,2.43-2.56,2.47-2.55,5.05-.02,2.64,2.59,5.26,5.19,7.84,7.84,2.15,2.21,2.15,2.28,0,4.63-4.27,4.68-9.14,8.66-14.52,11.99-26.49,16.37-65.22,15.61-90.72-8.4-13.63-12.84-21.31-28.63-22.89-47.29-1.72-20.34,2.87-38.98,16.06-54.89,16.73-20.17,38.59-28.45,64.47-26.59,14.7,1.05,27.56,6.63,38.63,16.33,1.44,1.26,2.81,2.61,4.12,4.01,2.43,2.59,2.42,2.64-.15,5.18-2.34,2.31-4.71,4.59-7.06,6.88-2.95,2.87-2.78,3.09-5.66,0-7.24-7.76-16.14-12.78-26.61-14.37-39.76-6.03-65.01,23.07-65.35,53.22-.12,10.14.96,19.96,5.66,29.09,10.32,20.06,27.08,29.69,46.36,30.35Z"/><path class="cls-4" d="m43.21,238.71c1.6-.86,2.78-2.21,4.03-3.47,9.59-9.58,19.18-19.17,28.77-28.76,1.35-1.35,2.6-2.85,4.6-3.3.76-.99,1.81-1.11,2.95-1.02,20.23,1.59,40.5.33,60.75.73,2.46.05,4.93-.05,7.39.2,1.73.18,3.27.63,3.54,2.71,0,14.19,0,28.39,0,42.58,0,1.09.04,2.19-.04,3.27-.21,2.58-.69,3.09-3.19,3.3-1.22.1-2.46.05-3.68.05-18.98,0-37.95,0-56.93,0-1.77,0-3.55.09-5.32.14-15.05-.77-28.53-5.98-40.85-14.43-.77-.53-1.35-1.33-2.01-2Z"/><path class="cls-3" d="m1353.72,169.02c.33,8.79-1.77,17.33-5.95,25.38-10.17,19.55-31.45,27.94-49.33,25.74-22.3-2.74-38.61-17.06-43.23-38.04-3.4-15.43-1.84-30.36,7.39-43.63,11.54-16.6,27.97-23.42,47.72-20.99,28.74,3.54,44.19,27.61,43.4,51.54Z"/><path class="cls-3" d="m1436.97,204.85c-2.09.92-2.64,2.25-3.49,3.26-12.72,15.09-37.78,16.8-51.65,5.18-7.07-5.93-10.56-13.8-12.46-22.54-.64-2.94-.86-5.94-.85-8.97.04-18.75.03-37.5.03-56.24,0-.41,0-.82,0-1.23.07-4.04.08-4.06,4.19-4.1,3.7-.03,7.39.06,11.09-.01,2.11-.04,2.95.9,2.91,2.94-.05,2.6,0,5.2,0,7.8,0,13.96.02,27.92,0,41.88,0,3.29.18,6.56.52,9.83,1.54,15.16,11.23,22.35,26.67,20.99,6.79-.6,12.09-4.01,16.1-9.51,4.52-6.2,6.53-13.18,6.54-20.78.01-15.87,0-31.75,0-47.62,0-5.93-.27-5.5,5.64-5.52,3.29-.01,6.57.05,9.86,0,1.93-.03,2.74.86,2.66,2.73-.04.96.01,1.92.01,2.87,0,28.6,0,57.2,0,85.8,0,.68.01,1.37,0,2.05-.1,3.43-.15,3.53-3.41,3.58-3.69.06-7.39.06-11.09,0-3.03-.05-3.16-.2-3.24-3.34-.07-2.85-.02-5.71-.02-9.05Z"/><path class="cls-3" d="m895.93,139.99c0-23.82,0-47.64,0-71.46,0-4.99.02-5,4.91-5.02,4.79-.01,9.59-.04,14.38.01,3.56.04,3.57.11,3.67,3.77.02.68,0,1.37,0,2.05,0,47.36,0,94.73,0,142.09,0,6.44.37,5.77-5.73,5.8-4.66.03-9.31.05-13.97-.02-3.09-.05-3.13-.15-3.25-3.33-.04-1.09-.01-2.19-.01-3.29,0-23.55,0-47.09,0-70.64Z"/><path class="cls-3" d="m1238.06,146.17c0,21.23,0,42.45,0,63.68,0,1.1.02,2.19,0,3.29-.08,4.06-.09,4.09-4.19,4.12-3.84.03-7.67-.03-11.51,0-1.7.01-2.55-.69-2.51-2.43.03-1.09-.02-2.19-.02-3.29,0-43.55,0-87.1,0-130.65,0-6.38-.38-5.73,5.77-5.77,3.29-.02,6.58.04,9.86,0,1.7-.02,2.55.73,2.55,2.43,0,1.23.05,2.46.05,3.7,0,21.64,0,43.28,0,64.91Z"/><path class="cls-5" d="m155.25,205.8c-1.81-.85-3.75-.58-5.65-.58-18.02-.02-36.04-.06-54.06.02-5.09.02-10.08-.37-14.92-2.05-6.36-3.18-11.72-7.4-15.43-13.66-10.7-18.07.17-42.33,20.81-46.22,13.1-2.47,25.25,2.63,32.69,13.85,2.19,3.3,2.04,4.03,5.51.53,10.05-10.08,20.13-20.13,30.19-30.2,2.81-2.82,2.87-2.92.27-5.98-10.76-12.67-24.21-21.18-40.16-25.79-1.83-.53-3.79-.66-5.43-1.76,21.96-23.38,55.71-27.02,82.18-8.87,1.12.77,2.28,1.49,3.42,2.23,15.18,12.74,22.73,29.07,22.96,48.83,0,.27,0,.55,0,.82q.01,5.62,5.44,6.66c16.15,3.08,27.1,17.31,25.78,33.51-1.29,15.8-14.55,28.31-30.79,28.52-18.06.24-36.13.06-54.2.08-2.87,0-5.75.05-8.62.07Z"/><path class="cls-5" d="m859.73,168.18c.2,7.82-1.85,14.64-6.3,20.71-9.17,12.49-26.88,14.74-38.96,4.94-15.04-12.19-16.09-35.6-2.28-49.2,11.08-10.9,32.12-11.62,42.35,4.73,3.66,5.85,5.46,12.21,5.2,18.82Z"/><path class="cls-5" d="m1550.23,169.34c.41,8.23-1.95,16.07-7.2,23-10.55,13.9-31.36,15.5-43.91,3.36-5.82-5.63-9.21-12.54-10.16-20.57-1.3-10.95.1-21.29,7.14-30.31,12.16-15.58,35.85-15.15,47.42.89,4.82,6.69,6.71,13.22,6.71,23.64Z"/><path class="cls-5" d="m747.22,168.07c.1,11.54-4.53,20.76-14.14,27.14-14.13,9.39-33.27,4.11-41.39-11.55-5.63-10.85-5.37-21.96.71-32.61,6.15-10.76,17.74-16.09,30-14.26,11.11,1.66,20.82,10.76,23.83,22.31.77,2.94,1.08,5.92.99,8.97Z"/><path class="cls-5" d="m603,136.49c15.72.02,28.71,12.6,29.68,28.8.57,9.43-1.81,17.91-8.35,24.97-12.36,13.32-32.4,12.55-43.98-1.51-9.37-11.38-9.38-30.41.07-41.53,5.92-6.97,13.37-10.71,22.58-10.73Z"/><path class="cls-5" d="m952.65,166.33c-.43-7.63,1.57-13.78,5.84-19.03,7.2-8.86,16.35-13.18,27.9-10.48,4.61,1.08,8.7,3.34,11.41,7.48,1.53,2.33,1.43,2.75-1.23,3.86-11.61,4.87-23.24,9.69-34.87,14.51-2.76,1.14-5.54,2.24-9.05,3.66Z"/><path class="cls-5" d="m1335.53,168.98c-.19,11.7-4.09,21.72-13.74,28.86-13.16,9.75-31.07,7.27-41.68-5.22-10.26-12.08-10.15-32.02-3.28-43.22,6.47-10.56,15.89-16.27,28.28-15.69,12.75.59,21.7,7.47,27.16,18.9,2.35,4.93,3.23,9.81,3.26,16.37Z"/></g></svg>