<?xml version="1.0" encoding="UTF-8"?><svg id="Ebene_2" xmlns="http://www.w3.org/2000/svg" viewBox="0 0 1146.72 237.83"><defs><style>.cls-1{fill:#7f7f7f;stroke-width:0px;}</style></defs><g id="Ebene_1-2"><path class="cls-1" d="m12.5.47c.55-.59,1.24-.36,1.86-.35,21.99.12,43.99-.51,65.97.34,17.74.68,34.89,4.2,50.77,12.58,20.57,10.86,33.56,27.88,40.32,49.89,5,16.3,6.26,33.04,5.51,49.99-.53,11.93-2.23,23.65-5.91,35.04-9.51,29.42-29.65,47.71-59.07,56.21-13.33,3.85-27,5.13-40.8,5.27-3.75.04-7.5-.05-11.24.03-1.59.04-2.26-.52-2.12-2.11.07-.81,0-1.63,0-2.44,0-58.48-.02-116.96.06-175.43,0-2.6-.68-4.03-3.04-5.31C41.29,16.83,27.87,9.31,14.42,1.83c-.68-.38-1.53-.55-1.92-1.37Z"/><path class="cls-1" d="m52.22,133.42c0,33.72,0,67.43,0,101.15,0,.73-.01,1.47-.01,2.2,0,1.03-.41,1.34-1.35.79-.42-.25-.86-.45-1.29-.69-15.8-8.76-31.59-17.55-47.43-26.25C.57,209.75,0,208.78,0,207,.04,139,.03,71,.04,2.99c0-2.85.02-2.86,2.54-1.47,15.74,8.72,31.45,17.47,47.23,26.12,1.81.99,2.48,2.06,2.47,4.14-.07,33.88-.05,67.76-.05,101.64Z"/><path class="cls-1" d="m612.32,87.87c0,18.62,0,37.24,0,55.86,0,13.98-.11,27.97.07,41.95.04,3.53-1.09,4.57-4.55,4.49-8.48-.22-16.98-.18-25.47-.02-3.16.06-4.42-.85-4.41-4.2.08-45.77.09-91.55-.02-137.32,0-3.74,1.53-4.32,4.76-4.29,14.98.13,29.97.21,44.95-.05,3.95-.07,5.43,1.31,6.4,4.95,7.55,28.27,15.29,56.49,22.97,84.73.39,1.42.43,2.98,1.98,4.55,3.47-12.71,6.87-25.11,10.25-37.52,4.71-17.33,9.49-34.64,14.05-52.01.9-3.43,2.31-4.75,6.06-4.69,15.15.24,30.3.2,45.44.03,3.44-.04,4.55.9,4.54,4.45-.11,45.61-.1,91.22,0,136.82,0,3.41-.93,4.67-4.48,4.58-8.32-.22-16.65-.29-24.97.02-4.11.15-4.98-1.4-4.97-5.17.12-31.13.07-62.25.07-93.38,0-1.16,0-2.32,0-3.97-2.3,1.46-2.11,3.68-2.6,5.36-8.84,30.5-17.66,61.01-26.24,91.59-1.2,4.26-2.99,5.89-7.52,5.59-6.63-.44-13.33-.4-19.96,0-4.45.27-6.29-1.19-7.52-5.56-8.72-31.05-17.75-62.02-26.69-93.01-.36-1.26-.79-2.5-1.18-3.75-.31,0-.62,0-.93,0Z"/><path class="cls-1" d="m259.73,108.81c0-22.96.07-45.93-.06-68.89-.02-4.07.59-5.08,4.53-2.78,9.33,5.45,18.83,10.63,28.37,15.71,2.73,1.45,3.68,3.24,3.67,6.29-.08,46.26-.09,92.52,0,138.78,0,4.19-.9,4.98-4.68,2.8-9.36-5.4-18.83-10.62-28.37-15.7-2.77-1.47-3.53-3.31-3.51-6.32.12-23.3.06-46.59.06-69.89Z"/><path class="cls-1" d="m1003.46,135.29c0-16.31.09-32.62-.07-48.93-.04-3.76.9-5.32,4.99-5.15,7.48.32,14.98.21,22.46.04,3.1-.07,4.45.72,4.44,4.13-.1,33.45-.1,66.9,0,100.35.01,3.6-1.35,4.53-4.7,4.44-7.48-.2-14.98-.26-22.46.02-3.91.14-4.75-1.44-4.72-4.97.13-16.64.06-33.28.06-49.92Z"/><path class="cls-1" d="m342.56,142.04c-6.97,0-13.94-.1-20.91.05-3.05.06-4.59-.71-4.5-4.14.18-7.3.13-14.6.02-21.91-.04-2.78.99-3.76,3.79-3.74,14.27.1,28.55.13,42.82-.02,3.16-.03,3.95,1.16,3.89,4.07-.15,7.13-.18,14.28.01,21.41.09,3.21-.91,4.42-4.21,4.33-6.97-.19-13.94-.06-20.91-.06Z"/><path class="cls-1" d="m1019.39,44.39c3.82,0,7.65.15,11.46-.05,3.07-.16,4.59.63,4.45,4.07-.22,5.47-.16,10.96-.02,16.43.08,2.94-.91,4.2-3.99,4.14-7.97-.14-15.94-.1-23.91-.02-2.64.03-4.01-.78-3.95-3.68.12-5.81.09-11.62.01-17.43-.03-2.5.87-3.6,3.49-3.51,4.15.14,8.3.04,12.45.03Z"/><path class="cls-1" d="m518.31,101.89c-3.52-29.4-20.59-48.64-49.11-55.08-6.49-1.47-13.1-2.34-19.78-2.37-18.63-.08-37.27.06-55.9-.18-4.12-.05-4.95,1.39-4.92,5.14.15,22.46.07,44.91.07,67.37,0,22.79.09,45.58-.08,68.37-.03,3.96,1.15,5.13,5.07,5.04,10.48-.24,20.96-.04,31.44-.09,13.62-.08,27.29.67,40.8-1.89,24.37-4.61,41.7-17.6,49.27-41.85,4.53-14.52,4.93-29.42,3.13-44.45Zm-36.83,28.5c-3.38,17.89-14.95,27.96-33.12,28.7-6.15.25-12.32-.12-18.47.17-3.72.17-4.92-1.04-4.86-4.79.2-12.48.07-24.96.08-37.44s.1-24.96-.06-37.44c-.05-3.51,1.16-4.66,4.61-4.53,6.32.24,12.65-.04,18.97.19,17.68.63,29.29,10.53,32.74,27.86,1.81,9.07,1.83,18.19.11,27.28Z"/><path class="cls-1" d="m982.31,123.99c0-24.95-.06-49.9.06-74.85.02-3.61-.88-5.02-4.74-4.87-7.47.29-14.98.3-22.45,0-3.9-.15-4.79,1.34-4.71,4.9.19,9.14.12,18.3.04,27.44-.03,3.9.46,7.86-.49,12.09-.92-.56-1.5-.84-2.01-1.22-25.27-18.74-59.4-8.49-69.52,21.27-6.02,17.7-5.72,35.82.39,53.42,10.87,31.32,46.01,40.15,71.34,18.32.21-.18.59-.18,1.61-.45,0,1.73.17,3.08-.03,4.37-.7,4.61,1.19,6.05,5.76,5.78,6.47-.38,12.98-.33,19.45-.01,4.15.2,5.42-1.15,5.38-5.31-.19-20.29-.08-40.58-.08-60.88Zm-35.43,32.27c-3.71,9.07-10.14,13.31-19.71,13.04-8.74-.24-15.19-4.85-17.99-13.92-4.07-13.19-4.16-26.6.18-39.75,3.14-9.51,10.28-14.28,19.56-14.04,10.13.26,16.57,5.32,19.6,15.36,1.65,5.48,1.77,11.14,1.97,16.26-.23,8.19-.65,15.83-3.6,23.05Z"/><path class="cls-1" d="m1146.45,107.66c-.23-13.38-7.1-21.47-19.78-25.79-5.4-1.84-10.99-2.74-16.63-3.12-13-.87-26-1.19-38.26,4.41-10.76,4.92-16.59,13.41-17.99,25.1-.36,2.98.41,4.21,3.65,4.13,7.65-.19,15.31-.14,22.97-.02,2.54.04,3.73-.69,4.51-3.34,2.78-9.47,9.51-12.77,20.9-10.68,7.71,1.41,10.39,5.75,10.17,15.59-.07,2.98-1.19,4-3.97,4.47-6.72,1.14-13.39,2.57-20.06,3.94-10.46,2.14-20.82,4.58-29.79,10.82-12,8.35-15.15,20.31-12.91,33.85,2.16,13.03,10.71,20.93,23.22,23.95,16.56,3.99,31.63.58,45.23-11.5.1,2.14.38,3.62.2,5.04-.56,4.25.83,5.96,5.42,5.67,6.47-.41,12.98-.18,19.47-.07,2.63.05,3.94-.59,3.92-3.58-.12-26.3.19-52.6-.27-78.89Zm-30.52,34.5c-.1.65-.01,1.32-.01,1.99-.14,13.48-5.56,21.87-15.94,24.51-4.43,1.13-8.89,1.08-13.2-.59-4.38-1.69-7.06-4.89-7.52-9.64-.43-4.46,1.18-8.12,4.83-10.8,3.55-2.61,7.72-3.75,11.85-4.97,4.92-1.46,9.94-2.64,14.76-4.36,4.07-1.45,5.92-.76,5.23,3.86Z"/><path class="cls-1" d="m790.51,142.05c10.99.13,21.97.05,32.96.05,7.66,0,15.32,0,22.97,0q15.62,0,13.51-15.7c-3.71-27.62-18.78-44.47-43.94-47.53-27.55-3.35-52.06,8.04-59.37,40.4-2.11,9.33-2.45,18.79-1.43,28.29,2.42,22.56,17.98,39.47,40.22,43.84,6.94,1.37,13.93,1.43,20.89.71,18.12-1.88,31.78-10.9,41.36-26.33,1.44-2.32,1.51-3.7-1.2-5.01-3.59-1.74-6.99-3.85-10.5-5.75-3.07-1.66-6.23-4.66-9.24-4.51-3.64.17-4.53,5.18-6.76,7.96-7.5,9.36-16.06,12.76-26.19,9.98-9.89-2.71-15.75-10.43-17.23-22.12-.44-3.48.7-4.33,3.94-4.29Zm-4.17-23.31c1.74-9.4,11.16-17.14,21.14-17.22,10.99-.09,19.4,6.8,21.3,17.16.56,3.03-.44,3.76-3.25,3.69-5.97-.14-11.94-.04-17.91-.05-6.14,0-12.28-.1-18.41.04-2.86.07-3.32-1.13-2.86-3.63Z"/></g></svg>