<?xml version="1.0" encoding="utf-8"?>
<!-- Generator: Adobe Illustrator 27.0.0, SVG Export Plug-In . SVG Version: 6.00 Build 0)  -->
<svg version="1.1" id="Ebene_2" xmlns="http://www.w3.org/2000/svg" xmlns:xlink="http://www.w3.org/1999/xlink" x="0px" y="0px"
	 viewBox="0 0 193.5 85.9" style="enable-background:new 0 0 193.5 85.9;" xml:space="preserve">
<style type="text/css">
	.st0{fill:#7F7F7F;}
</style>
<g>
	<g>
		<path class="st0" d="M23,49.6c-1.6,0.8-2.7,2.5-2.7,4.4c0,1.9,1.1,3.6,2.7,4.4c1.6-0.8,2.7-2.5,2.7-4.4
			C25.7,52.1,24.6,50.5,23,49.6z"/>
		<path class="st0" d="M27.8,47.7c-0.5,1.7-0.1,3.6,1.2,5c1.3,1.3,3.3,1.8,5,1.2c0.5-1.7,0.1-3.6-1.2-5
			C31.4,47.6,29.5,47.2,27.8,47.7z"/>
		<path class="st0" d="M34.7,48.2c0.2,1.8,1.4,3.4,3.2,4c1.8,0.7,3.7,0.2,5-1c-0.2-1.8-1.4-3.4-3.2-4C37.9,46.6,36,47,34.7,48.2z"/>
		<path class="st0" d="M3.2,34.6c0.2,1.8,1.4,3.4,3.2,4s3.7,0.2,5-1c-0.2-1.8-1.4-3.4-3.2-4C6.5,33,4.5,33.4,3.2,34.6z"/>
		<path class="st0" d="M13.2,49.1c-1.3,1.3-1.8,3.3-1.2,5c1.7,0.5,3.6,0.1,5-1.2c1.3-1.3,1.8-3.3,1.2-5
			C16.5,47.4,14.6,47.8,13.2,49.1z"/>
		<path class="st0" d="M23,27.6c-1.6,0.8-2.7,2.5-2.7,4.4c0,1.9,1.1,3.6,2.7,4.4c1.6-0.8,2.7-2.5,2.7-4.4S24.6,28.4,23,27.6z"/>
		<path class="st0" d="M29,33.3c-1.3,1.3-1.8,3.3-1.2,5c1.7,0.5,3.6,0.1,5-1.2c1.3-1.3,1.8-3.3,1.2-5C32.3,31.6,30.3,32,29,33.3z"/>
		<path class="st0" d="M12,31.9c-0.5,1.7-0.1,3.6,1.2,5c1.3,1.3,3.3,1.8,5,1.2c0.5-1.7,0.1-3.6-1.2-5C15.7,31.8,13.7,31.4,12,31.9z"
			/>
		<path class="st0" d="M34.2,40.1c-1.9,0-3.6,1.1-4.4,2.7c0.8,1.6,2.5,2.7,4.4,2.7c1.9,0,3.6-1.1,4.4-2.7
			C37.8,41.2,36.1,40.1,34.2,40.1z"/>
		<path class="st0" d="M16.4,42.8c-0.8-1.6-2.5-2.7-4.4-2.7s-3.6,1.1-4.4,2.7c0.8,1.6,2.5,2.7,4.4,2.7S15.6,44.4,16.4,42.8z"/>
		<path class="st0" d="M37.5,33.6c-1.8,0.7-3,2.3-3.2,4c1.3,1.2,3.3,1.6,5,1c1.8-0.7,3-2.3,3.2-4C41.2,33.4,39.3,33,37.5,33.6z"/>
		<path class="st0" d="M6,47.2c-1.8,0.7-3,2.3-3.2,4c1.3,1.2,3.3,1.6,5,1c1.8-0.7,3-2.3,3.2-4C9.7,47,7.8,46.6,6,47.2z"/>
		<path class="st0" d="M32.2,28c0.7-1.8,0.2-3.7-1-5c-1.8,0.2-3.4,1.4-4,3.2c-0.7,1.8-0.2,3.7,1,5C29.9,30.9,31.5,29.8,32.2,28z"/>
		<path class="st0" d="M18.6,59.4c0.7-1.8,0.2-3.7-1-5c-1.8,0.2-3.4,1.4-4,3.2s-0.2,3.7,1,5C16.3,62.4,17.9,61.2,18.6,59.4z"/>
		<path class="st0" d="M17.6,31.5c1.2-1.3,1.6-3.3,1-5c-0.7-1.8-2.3-3-4-3.2c-1.2,1.3-1.6,3.3-1,5C14.2,30.1,15.8,31.3,17.6,31.5z"
			/>
		<path class="st0" d="M31.2,63c1.2-1.3,1.6-3.3,1-5c-0.7-1.8-2.3-3-4-3.2c-1.2,1.3-1.6,3.3-1,5C27.8,61.6,29.4,62.7,31.2,63z"/>
	</g>
	<g>
		<path class="st0" d="M88.2,33.5c-5.3,0-8.1,1.8-8.1,1.8v3c0,0,0.8-0.6,2.9-1.1c2.1-0.5,5.7-0.7,8.6,0.3c2.9,1,2.6,5.9,2.6,5.9
			h-4.7c-5.1,0-11.7,1.6-11.7,7.4c0,5.8,5.1,7.7,10.9,7.7c5.8,0,9.1-1.9,9.1-1.9V41.2C97.9,36.4,93.6,33.5,88.2,33.5z M94.3,55.2
			c0,0-2.6,0.8-5.6,0.8c-3,0-7-0.9-7-4.8s4.1-4.8,8.7-4.8h3.9V55.2L94.3,55.2z"/>
		<path class="st0" d="M155.3,33.5c-5.3,0-8.1,1.8-8.1,1.8v3c0,0,0.8-0.6,2.9-1.1c2.1-0.5,5.7-0.7,8.6,0.3c2.9,1,2.6,5.9,2.6,5.9
			h-4.7c-5.1,0-11.7,1.6-11.7,7.4c0,5.8,5.1,7.7,10.9,7.7c5.8,0,9.1-1.9,9.1-1.9V41.2C165,36.4,160.7,33.5,155.3,33.5z M161.4,55.2
			c0,0-2.6,0.8-5.6,0.8s-7-0.9-7-4.8s4.1-4.8,8.7-4.8h3.9V55.2L161.4,55.2z"/>
		<path class="st0" d="M122.6,55.7c-1.4,0.5-3.3,0.3-5.7,0.3c-6.4,0-9.2-3.6-9.4-9.1c-0.3-6.5,3.1-10.3,9.1-10.3
			c2.4,0,4.7,0.1,6.1,0.7v-2.4c-1.7-0.7-5.2-1.7-7.2-1.7c-7.8,0-11.9,6.3-11.9,13.3s4.4,12.7,12.2,12.7c2,0,5.1-0.3,6.9-1
			L122.6,55.7L122.6,55.7z"/>
		<rect x="50.7" y="26.1" class="st0" width="4.4" height="32.5"/>
		<path class="st0" d="M142.3,56.4l-1.9-3c0,0-3.4,3.2-6.2,2.1s-2.9-3.5-2.9-3.5V26.1H127V52c0,0-0.3,7.5,8,6.6
			C143.2,57.8,142.3,56.4,142.3,56.4L142.3,56.4z"/>
		<path class="st0" d="M137.3,33.4c-2.1,0-3.9,1.2-4.8,2.9c0.9,1.7,2.7,2.9,4.8,2.9s3.9-1.2,4.8-2.9
			C141.2,34.6,139.4,33.4,137.3,33.4z"/>
		<path class="st0" d="M179.3,59.8c-3.8,0-7.1-2.4-7.5-2.7l2.5-3.5c0.7,0.5,2.9,1.8,4.9,1.8h0c3.1,0,6.8-0.6,7-3
			c0-0.4-0.3-1.8-1.3-2.8c-0.6-0.7-1.4-1-2.1-1c-2.6,0.1-6.4-0.8-8.8-3.1c-1.4-1.3-2.1-2.9-2.1-4.6c0-5.2,3.6-8.6,9.1-8.6
			c3.9,0,7.5,3.1,7.9,3.4l-2.8,3.3c-0.8-0.7-3.2-2.4-5.1-2.4c-3.2,0-4.9,1.4-4.9,4.3c0,0.2,0,0.8,0.8,1.5c1.3,1.3,3.9,2,5.7,1.9
			c2-0.1,4,0.8,5.5,2.4c1.6,1.8,2.6,4.3,2.4,6.2C190.3,56,188.1,59.7,179.3,59.8L179.3,59.8L179.3,59.8z"/>
		<path class="st0" d="M64.6,26.2H54v4.3h10.7c3,0,5.5,2.4,5.5,5.5v1.3c0,3-2.5,5.5-5.5,5.5H54V47h10.7c5.4,0,9.7-4.4,9.7-9.7v-1.3
			C74.4,30.6,70,26.2,64.6,26.2z"/>
	</g>
</g>
</svg>
