<?xml version="1.0" encoding="UTF-8"?><svg id="Ebene_2" xmlns="http://www.w3.org/2000/svg" viewBox="0 0 665.83 82.93"><defs><style>.cls-1{fill:#7f7f7f;}.cls-1,.cls-2,.cls-3,.cls-4{stroke-width:0px;}.cls-2{fill:#7a7a7a;}.cls-3{fill:#d6d6d6;}.cls-4{fill:#afafaf;}</style></defs><g id="Ebene_1-2"><path class="cls-1" d="m400.98,36.57c7.25-9.78,21.68-8.39,25.44.55.71-.76,1.4-1.48,2.07-2.23,2.65-2.93,5.95-4.45,9.86-4.92,3.78-.45,7.23.19,10.37,2.38,2.31,1.61,3.7,3.89,4.69,6.44,1.05,2.72,1.47,5.56,1.46,8.49-.03,9.14-.03,18.28.01,27.43,0,1.04-.24,1.37-1.32,1.34-3.24-.07-6.48-.07-9.71,0-1.04.02-1.25-.34-1.24-1.3.04-8.06.09-16.13-.02-24.19-.03-2.59-.32-5.17-1.48-7.62-1.7-3.58-6.61-3.93-9.3-1.76-2.19,1.77-3.1,4.11-3.1,6.87,0,8.86-.02,17.72.02,26.59,0,1.06-.23,1.44-1.37,1.41-3.32-.08-6.64-.06-9.95,0-.98.02-1.19-.31-1.19-1.23.03-8.58.02-17.17.01-25.75,0-1.88-.33-3.71-1.01-5.45-1.68-4.37-6.85-4.86-9.92-2.08-2.07,1.87-2.97,4.26-2.97,7-.02,8.7-.03,17.41.02,26.11,0,1.07-.25,1.43-1.38,1.41-3.28-.08-6.56-.08-9.83,0-1.1.03-1.31-.34-1.31-1.36.03-12.18.03-24.35.02-36.53,0-2.11-.34-4.2-.26-6.31.03-.77.15-1.15,1.04-1.13,2.92.05,5.84.04,8.75,0,.76,0,1.01.21,1.05,1.01.09,1.59.35,3.18.55,4.84Z"/><path class="cls-2" d="m94.5,38.4c-7.81-5.6-16.05-10.5-24.78-14.53-7.09-3.28-14.45-5.85-22.12-7.45-4.71-.98-9.48-1.35-14.26-.98-4.58.35-8.96,1.59-12.51,4.71-2.57,2.26-4,5.21-4.52,8.58-.83,5.4.67,10.41,2.71,15.28,2.63,6.28,6.46,11.85,10.66,17.17,3.84,4.86,8.32,9.13,12.75,13.44,1.48,1.44,3.14,2.68,4.7,4.04.4.35.89.66,1.04,1.32-.78.08-1.38-.19-1.93-.59-5.17-3.76-10.29-7.6-15.15-11.77-1.96-1.68-3.82-3.49-5.74-5.22-2.16-1.95-4.18-4.02-6.18-6.14-6.41-6.79-11.98-14.15-15.81-22.7C1.21,28.75-.16,23.69.01,18.35c.15-4.57,1.41-8.8,4.62-12.21,1.82-1.94,4.13-3.22,6.61-4.18C15.9.15,20.79-.21,25.7.1c9.52.61,18.61,3.15,27.47,6.62,5.38,2.11,10.62,4.55,15.71,7.27,7.13,3.81,13.96,8.12,20.48,12.9,2.56,1.88,5.05,3.85,7.58,5.78.48.31.38.77.22,1.17-.54,1.32-1,2.67-1.68,3.93-.2.38-.38.83-.97.62Z"/><path class="cls-4" d="m90.46,47.98c-3.19-1.73-6.38-3.47-9.65-5.05-7.34-3.54-14.98-6.22-23.07-7.31-4.87-.66-9.79-.79-14.55.98-4.72,1.76-7.52,5-8.19,10.08-.6,4.56.84,8.68,2.64,12.69,2.85,6.36,6.98,11.86,11.7,16.95.89.97,1.75,1.96,2.68,2.89.19.19.48.4.26.7-.18.25-.51.17-.79.14-.34-.04-.55-.29-.8-.49-4.16-3.32-7.97-7.02-11.59-10.9-5.96-6.39-11.13-13.36-14.44-21.54-1.57-3.89-2.35-7.93-2.12-12.15.27-5.03,3.89-9.83,8.97-11.65,3.72-1.33,7.55-1.69,11.52-1.51,9.48.43,18.22,3.43,26.75,7.23,7.69,3.42,14.88,7.69,21.7,12.6.42.3.88.54,1.33.81.5.29.38.72.24,1.14-.45,1.34-1.07,2.62-1.66,3.91-.17.38-.44.66-.93.49Z"/><path class="cls-1" d="m524.44,18.96v8.86q0,2.91,2.95,2.91c2.12,0,4.24.03,6.35-.01.78-.02,1.04.24,1.03,1.02-.04,2.35-.05,4.71,0,7.06.02.89-.34,1.06-1.13,1.05-2.68-.04-5.36.03-8.03-.04-.98-.02-1.2.32-1.19,1.23.03,6.27-.02,12.53.04,18.8.02,1.68.25,3.38,1.23,4.87.86,1.3,2.08,1.92,3.59,1.94,1.27.02,2.54.14,3.8-.2.58-.16,1.01.03.95.79-.18,2.43.29,4.84.27,7.27,0,.94-.33,1.3-1.18,1.54-1.27.36-2.58.5-3.86.59-3.25.23-6.52.31-9.65-.89-3.75-1.43-5.92-4.26-6.91-8.04-.52-1.99-.77-4.03-.76-6.11.04-6.82-.01-13.65.04-20.47,0-1.07-.3-1.39-1.35-1.32-1.35.09-2.72,0-4.07.03-.61.01-.85-.2-.84-.83.02-2.47.03-4.95,0-7.42,0-.71.29-.88.93-.87,1.44.03,2.88-.03,4.32.02.8.03,1.03-.27,1.01-1.04-.04-2.11,0-4.23-.02-6.35-.01-.65.16-.93.85-1.11,3.84-1.04,7.66-2.16,11.63-3.29Z"/><path class="cls-1" d="m647.95,76.76c-4.98-.04-9.12-.71-13.06-2.46-.91-.41-1.08-.9-.81-1.8.68-2.26,1.3-4.55,1.91-6.83.19-.72.53-.79,1.12-.47,2.65,1.42,5.51,2.18,8.46,2.6,1.78.25,3.59.17,5.28-.55,1.35-.57,2.47-1.46,2.65-3.08.2-1.83-.34-3.32-1.88-4.46-1.91-1.41-4.15-2.12-6.27-3.08-3.66-1.66-7.01-3.66-9.09-7.29-1.43-2.49-1.57-5.18-1.07-7.84,1.22-6.5,5.75-9.78,11.8-11.19,5.65-1.31,11.18-.5,16.52,1.69.45.19.49.42.35.9-.69,2.34-1.33,4.7-1.96,7.06-.21.78-.54.89-1.28.57-2.78-1.22-5.63-2.12-8.73-1.92-1.31.08-2.52.44-3.53,1.23-2.11,1.64-1.8,4.59.61,6.22,2.05,1.38,4.41,2.12,6.65,3.13,3.71,1.68,7.14,3.8,8.88,7.65,2.16,4.79,1.69,9.49-1.44,13.78-2.46,3.37-6.1,4.78-10.01,5.6-1.9.4-3.84.65-5.1.53Z"/><path class="cls-1" d="m616.99,76.74c-4.9.03-9.54-.95-13.69-3.64-4.76-3.08-7.42-7.65-8.52-13.07-.93-4.59-.92-9.22.41-13.78,1.72-5.89,5.12-10.46,10.61-13.38,3.27-1.73,6.75-2.56,10.43-2.92,3.99-.39,7.81.19,11.6,1.27.66.19,1.03.36.78,1.28-.68,2.47-1.21,4.98-1.7,7.49-.16.81-.4.94-1.08.62-1.94-.91-4.07-1.2-6.13-1.21-4.46-.02-8.26,1.6-10.54,5.65-2.86,5.08-2.97,10.38-.48,15.6,1.79,3.76,4.97,5.76,9.17,6.27,2.75.33,5.35-.11,7.93-.94.84-.27,1.3-.38,1.44.79.26,2.31.72,4.59,1.09,6.89.14.89-.21,1.39-1.12,1.63-2.07.54-4.14.99-6.27,1.21-1.31.13-2.61.21-3.93.21Z"/><path class="cls-1" d="m553.08,38.3c.96-1.39,1.61-2.86,2.7-4.11,2.94-3.38,6.62-4.75,11.01-4.4.67.05,1.11.34,1.1,1.21-.06,3.15-.05,6.31,0,9.46.01.87-.31,1.07-1.11,1.06-1.65-.03-3.31-.19-4.95.22-4.02,1.02-6.49,4.28-6.87,8.19-.67,7-.13,14.03-.27,21.04-.03,1.4-.02,2.79,0,4.19.01.61-.19.85-.82.85-3.68-.02-7.36-.03-11.03,0-.96.01-.87-.56-.87-1.17,0-7.47,0-14.93,0-22.4,0-5.11-.03-10.22.02-15.33.01-1.75-.33-3.48-.29-5.24.02-.98.35-1.2,1.25-1.18,2.84.05,5.68.05,8.51,0,.98-.02,1.4.29,1.32,1.3-.17,2.1.47,4.17.32,6.3Z"/><path class="cls-1" d="m347.38,38.6c2.12-2.65,4.59-4.65,7.61-6.06,6.08-2.84,14-1.83,18.57,3.13,2.37,2.57,3.72,5.67,4,9.07.68,8.16.14,16.34.28,24.51.03,1.96-.02,3.91.01,5.87.01.67-.23.92-.9.9-.96-.04-1.93-.08-2.88.01-1.18.12-1.55-.23-1.54-1.49.06-7.99.07-15.97.02-23.96-.02-3.13-.33-6.28-1.72-9.13-1.5-3.08-3.92-5.1-7.42-5.71-5.16-.9-9.39.8-12.79,4.6-1.96,2.19-3.26,4.74-3.25,7.82.03,8.82,0,17.65.04,26.47,0,1.1-.29,1.48-1.4,1.39-1.07-.09-2.16-.05-3.24-.01-.65.02-.98-.18-.91-.88.03-.28,0-.56,0-.84,0-20.52,0-41.05,0-61.57,0-1.86-.2-1.63,1.68-1.65.88,0,1.76.05,2.64-.02.93-.08,1.23.23,1.22,1.19-.04,5.79-.02,11.58-.02,17.37,0,2.99,0,5.98,0,8.97Z"/><path class="cls-1" d="m90.46,47.98c.92-1.79,1.75-3.61,2.35-5.53.73-1.28,1.23-2.65,1.69-4.04.98-1.84,1.72-3.77,2.43-5.73,2.16-5.08,4.31-10.16,6.47-15.25.46-1.09.9-2.19,1.36-3.28.14-.33.28-.69.75-.64.39.04.44.36.57.67,2.63,6.35,5.26,12.69,7.92,19.03.31.74.15,1.21-.34,1.81-1.98,2.41-4.14,4.68-5.97,7.21-.55,1.77-1.53,3.16-3.33,3.85-.93,1.21-2.16,2.19-2.88,3.58.18.75-.4,1.18-.79,1.6-.69.74-1.07,1.89-2.32,1.99-.94.84-1.67,1.85-2.42,2.85-.43,1.57-1.2,2.84-2.86,3.36-2.75,3.26-5.49,6.53-8.25,9.78-1.26,1.48-2.58,2.91-3.84,4.39-.26.31-.48.59-.86.38-.42-.22-.23-.6-.09-.94.77-1.86,1.53-3.73,2.31-5.58,1.56-3.71,3.13-7.42,4.7-11.14-.32-1.42.8-4.12,1.98-4.77.49-1.2,1.18-2.32,1.43-3.62Z"/><path class="cls-3" d="m89.03,51.6c-.66,1.59-1.32,3.18-1.98,4.77-6.29-3.21-12.92-5.39-19.98-5.92-4.6-.35-9.13.17-12.96,3.2-2.35,1.86-3.55,4.38-3.96,7.28-.71,5.13,1.15,9.65,3.46,14.03.74,1.41,1.68,2.71,2.54,4.06.23.36.65.75.16,1.14-.4.32-.84.07-1.18-.25-1.48-1.4-2.71-3.03-4.02-4.59-2.7-3.22-5.15-6.62-7.07-10.37-2.2-4.31-3.9-8.77-3.07-13.77.74-4.49,3.32-7.51,7.52-9.16,3.02-1.19,6.18-1.42,9.4-1.27,10.86.5,20.45,4.71,29.66,10.03.48.28.98.54,1.47.82Z"/><path class="cls-1" d="m575.06,53.31c0-7.11.02-14.21-.02-21.32,0-.97.23-1.31,1.25-1.29,3.36.06,6.71.05,10.07,0,.84,0,1.19.15,1.19,1.1-.03,14.37-.03,28.74,0,43.11,0,.81-.21,1.11-1.07,1.1-3.44-.04-6.88-.05-10.31,0-.92.01-1.13-.3-1.13-1.17.03-7.19.02-14.37.02-21.56Z"/><path class="cls-1" d="m162.62,76.71c-3.46.26-6.75-.7-9.98-1.99-1.51-.6-1.61-.83-1.03-2.33.34-.88.52-2.03,1.18-2.53.75-.57,1.54.52,2.33.84,2.54,1.06,5.17,1.93,7.9,1.87,3.01-.07,5.97-.59,8.21-3.05,2.3-2.53,2.3-7.27-.02-9.8-2.26-2.47-5.25-3.6-8.23-4.81-3.45-1.4-6.62-3.18-8.91-6.27-2.48-3.33-2.1-8.34-.08-11.53,2.29-3.62,5.73-5.31,9.83-5.92,4.42-.65,8.59.05,12.54,2.15.57.3.74.56.4,1.15-.47.82-.96,1.66-1.28,2.55-.35.95-.8.81-1.48.41-2.58-1.51-5.37-2.32-8.38-2.17-4.07.2-7.22,2.1-7.89,6.44-.41,2.62.88,4.72,3.07,6.28,2.09,1.48,4.49,2.32,6.8,3.34,2.83,1.25,5.65,2.52,7.8,4.88,1.71,1.89,2.74,4,2.9,6.58.15,2.4-.08,4.67-1.16,6.87-1.43,2.92-3.79,4.71-6.72,5.85-2.47.96-5.05,1.34-7.77,1.17Z"/><path class="cls-1" d="m319.36,76.72c-4.9.2-9.34-.98-13.32-3.75-4.42-3.08-6.84-7.43-8.08-12.56-.45-1.86-.69-3.78-.66-5.64.11-5.84,1.38-11.34,5.35-15.95,3.96-4.59,8.98-6.94,14.92-7.65,4.38-.52,8.61-.03,12.75,1.44.11.04.25.02.35.08,1.93.97,1.89.68,1.12,2.44-.38.87-.48,2.1-1.14,2.54-.67.45-1.55-.61-2.39-.9-5.31-1.88-10.63-2.17-15.82.28-4.83,2.29-7.67,6.29-8.83,11.41-1.35,5.92-.98,11.67,2.47,16.9,2.54,3.84,6.16,6.06,10.68,6.81,4.34.72,8.52.07,12.54-1.65.33-.14.67-.23,1-.37.42-.18.64-.14.76.38.2.88.4,1.78.76,2.61.38.87-.07,1.16-.73,1.41-3.81,1.45-7.72,2.37-11.75,2.18Z"/><path class="cls-1" d="m279.11,40.24c.76-1.58,1.64-3.05,2.74-4.39,2.8-3.42,6.41-5.04,10.82-4.86.79.03,1.32.34,1.23,1.32-.09,1.07-.02,2.15-.02,3.23,0,.45-.06.7-.69.61-4.21-.58-7.57,1.04-10.05,4.35-2.4,3.19-3.4,6.92-3.41,10.89-.02,7.74-.02,15.48.02,23.22,0,1.04-.2,1.53-1.36,1.42-1.07-.1-2.16-.06-3.23-.01-.74.03-.97-.24-.96-.97.03-2.31.01-4.63.01-6.94,0-9.62-.01-19.23,0-28.85,0-2.11-.38-4.19-.27-6.31.04-.74.2-1.09,1.01-1.04.96.06,1.92.05,2.88,0,.75-.04.89.27.96.97.23,2.44.22,4.88.32,7.35Z"/><path class="cls-2" d="m104.35,46.08c1.06-1.33,2.1-2.67,3.33-3.85,1.54,1.56,3.1,3.11,4.61,4.69,6.05,6.34,11.45,13.18,15.78,20.83,2.24,3.96,4.09,8.07,5.32,12.46.17.61.33,1.22.44,1.85.06.33.15.77-.37.85-.42.07-.65-.17-.79-.56-.73-1.94-1.59-3.81-2.53-5.65-2.51-4.9-5.64-9.37-9.1-13.64-3.14-3.87-6.47-7.55-10.08-10.97-1.99-1.88-3.94-3.81-6.13-5.47-.18-.14-.31-.36-.46-.54Z"/><path class="cls-1" d="m588.01,18.67c.07,4.44-3.12,6.56-6.86,6.47-4-.09-6.66-2.29-6.74-6.46-.08-3.89,2.54-6.54,6.83-6.6,3.72-.05,6.98,2.34,6.77,6.59Z"/><path class="cls-4" d="m98.36,53.25c1-1.23,1.85-2.59,3.11-3.59,1.29.6,2.21,1.69,3.2,2.63,5.07,4.81,9.91,9.84,13.95,15.57,2.91,4.12,5.53,8.4,7.18,13.19.17.49.79,1.21-.03,1.55-.68.28-.85-.54-1.11-1-3.08-5.44-6.83-10.36-11.07-14.96-4.62-5-9.81-9.32-15.24-13.39Z"/><path class="cls-3" d="m93.08,59.46c.92-1.15,1.76-2.37,2.86-3.36,1.67,1.72,3.69,3.03,5.5,4.59,4.07,3.49,7.81,7.28,11.1,11.52,2.14,2.75,4.05,5.64,5.56,8.78.2.41.81.95.18,1.34-.6.37-.89-.33-1.16-.74-2.38-3.62-5.23-6.83-8.29-9.88-4.55-4.54-9.68-8.31-15.07-11.75-.23-.15-.45-.32-.68-.48Z"/><path class="cls-1" d="m501.89,44.72c-1.09-4.81-3.13-9.07-7.36-11.89-4.95-3.3-10.42-3.69-16.1-2.48-4.5.96-8.13,3.4-10.97,6.91-3.85,4.78-5.21,10.49-5.37,16.49-.06,2.24.21,4.51.69,6.71.98,4.45,2.94,8.41,6.5,11.32,4.23,3.46,9.26,4.88,14.68,4.93,1.99.02,3.97,0,5.96-.2,3.32-.35,6.55-1,9.7-2.11.5-.18.64-.44.55-.87-.51-2.39-1.04-4.77-1.57-7.16-.1-.47-.23-.74-.88-.54-4.27,1.28-8.6,2.06-13.09,1.56-3.06-.34-5.78-1.41-7.87-3.69-1.3-1.42-2.01-3.17-2.27-5.12-.2-1.51-.28-1.5,1.22-1.5,4.2,0,8.39,0,12.59,0,4.32,0,8.63,0,12.95-.01.41,0,1.03.27,1.1-.53.07-.75.22-1.49.24-2.24.1-3.22,0-6.43-.71-9.59Zm-12.13,3.76c-2.43-.06-4.87-.02-7.31-.02-2.32,0-4.63-.03-6.95.01-.99.02-1.26-.13-1.03-1.26.56-2.79,1.6-5.23,3.78-7.15,3.35-2.94,8.93-1.96,11.05,1.93.91,1.67,1.29,3.46,1.54,5.31.11.84-.14,1.21-1.09,1.19Z"/><path class="cls-1" d="m222.87,44.8c-1.14-4.56-3.18-8.58-7.24-11.18-5.22-3.34-10.9-3.43-16.56-1.49-6.36,2.19-10.13,7.04-12.14,13.26-1.62,5.03-1.84,10.26-.71,15.39,1.55,7.05,5.58,12.19,12.55,14.77,3.4,1.26,6.93,1.23,10.47,1.18,3.15-.04,6.22-.61,9.21-1.54,2.76-.86,2.74-.93,1.81-3.69-.09-.26-.22-.52-.25-.79-.08-.69-.46-.6-.91-.38-.96.47-1.95.86-2.98,1.13-3.47.91-6.99,1.27-10.57.95-3.44-.31-6.55-1.43-9.14-3.77-3.99-3.62-5.05-8.42-5.46-13.5-.08-.99.31-1.19,1.22-1.19,5,.04,9.99.02,14.99.02,5.04,0,10.07,0,15.11,0,.73,0,1.33,0,1.34-1.02.03-2.75-.06-5.47-.73-8.15Zm-5.88,5.11c-4.12-.03-8.23-.02-12.35-.02-4,0-7.99-.03-11.99.02-.98.01-1.52-.02-1.23-1.28,1.33-5.7,3.74-10.59,9.71-12.64,4.03-1.39,7.99-1.03,11.58,1.43,2.65,1.81,4.02,4.52,4.79,7.54.32,1.26.48,2.56.57,3.86.06.86-.27,1.08-1.09,1.07Z"/><path class="cls-1" d="m262.86,75.37c-.51-3.42-.66-6.87-.65-10.32,0-2.59,0-5.19,0-7.78,0-3.39,0-6.78,0-10.18,0-2.44-.36-4.82-1.21-7.09-1.33-3.55-3.54-6.31-7.2-7.72-3.3-1.27-6.66-1.51-10.16-1.12-2.95.33-5.78.98-8.41,2.29-3.02,1.49-2.41.85-1.38,3.75.46,1.29.99,1.17,1.94.64,4.05-2.28,8.39-3.07,12.96-2.29,3.57.61,5.96,2.7,7.18,6.13.73,2.05.7,4.2.89,6.32.04.47-.21.47-.47.45-.81-.07-1.58.25-2.36.25-4.15-.05-8.22.49-12.19,1.7-2.86.87-5.59,2.07-7.81,4.12-3.5,3.24-4.88,7.26-4.19,12.01.64,4.43,3.08,7.48,7.11,9.23,2.69,1.17,5.53,1.45,8.49,1.01,4.44-.65,8.27-2.33,11.12-5.91.16-.21.31-.52.65-.39.26.1.23.39.25.62.08,1.19.12,2.38.26,3.55.06.57-.06,1.37.92,1.37,1.24,0,2.48,0,3.72,0,.43,0,.64-.11.56-.64Zm-7.15-9.59c-2.1,3.77-5.22,6.02-9.54,6.67-2.96.44-5.66.13-8.03-1.86-1.89-1.58-2.66-3.69-2.78-6.03-.25-5.07,2.62-8.21,7.14-9.88,2.92-1.08,5.95-1.51,9.05-1.71,1.39-.09,2.77-.14,4.16-.21.9-.04,1.3.19,1.24,1.18-.09,1.27-.02,2.55-.02,3.83.09,2.75.18,5.49-1.22,8.01Z"/></g></svg>