<?xml version="1.0" encoding="UTF-8"?><svg id="Ebene_2" xmlns="http://www.w3.org/2000/svg" viewBox="0 0 193.06 220.53"><defs><style>.cls-1{stroke-width:0px;}</style></defs><g id="Ebene_1-2"><g id="daten"><path class="cls-1" d="m7.37,63.26c7.33,4.15,14.9,8.3,22.88,10.78,26.05,8.08,52.93,9.6,80.03,8.32,21.72-1.03,43.12-3.84,63.36-12.36,12.39-5.22,22.21-12.37,18.69-28.23,0-1.83-.21-3.7.04-5.49,1.25-9.1-3.23-15.16-10.73-19.04-6.46-3.35-13.14-6.67-20.11-8.58C121.25-2.43,80.62-2.44,39.92,6.19c-11.43,2.42-22.51,6.02-32.15,13.03C2.59,22.98-.48,27.66.06,34.44c.38,4.8.35,9.68,0,14.49-.45,6.38,2.12,11.41,7.3,14.34Z"/><path class="cls-1" d="m96.11,165.29c-33.05,0-65.77-3.24-95.97-20.31,0,14.42.15,28.22-.08,42.01-.09,5.33,1.54,9.92,5.89,12.46,7.54,4.41,15.18,9.29,23.45,11.68,41.64,12.07,83.76,12.18,125.78,2.2,9.85-2.34,19.22-7.14,28.44-11.58,4.6-2.22,8.56-6.24,8.63-12.03.18-14.64.06-29.28.06-44.75-30.39,17.13-63.13,20.32-96.19,20.31Z"/><path class="cls-1" d="m192.33,76.3c-30.36,16.92-62.99,20.2-96.1,20.2-33.11,0-65.73-3.29-95.85-20.01-.1,1.82-.24,3.26-.24,4.7-.02,12.16.22,24.32-.11,36.47-.17,6.36,2.05,11.54,7.33,14.29,8.92,4.64,18.03,9.47,27.64,12.14,30.04,8.35,60.8,8.89,91.62,5.79,17.08-1.72,33.86-5.02,49.63-12.31,10.89-5.03,17.58-12.03,16.31-25.42-1.11-11.66-.23-23.5-.23-35.84Z"/></g></g></svg>