<?xml version="1.0" encoding="UTF-8"?><svg id="Ebene_2" xmlns="http://www.w3.org/2000/svg" viewBox="0 0 203.5 264.37"><defs><style>.cls-1{stroke-width:0px;}</style></defs><g id="Ebene_1-2"><path id="dsgvo" class="cls-1" d="m203.34,116.97c-.08-14.95-11.3-25.35-26.39-25.4-4.61-.01-9.22,0-14.26,0,0-10.73.04-20.86,0-30.98-.21-40.05-39.4-69.33-77.86-58.2-26.6,7.7-44.13,31.19-44.4,59.63-.09,9.63-.01,19.27-.01,29.55-5.31,0-9.79-.02-14.26,0C10.78,91.63.01,102.34,0,117.59c-.01,40.15,0,80.29,0,120.44,0,15.75,10.52,26.34,26.18,26.34,50.31,0,100.62,0,150.93,0,15.1,0,26.15-10.36,26.23-25.47.21-40.64.21-81.29,0-121.94Zm-89.07,51.25c-3.14,2.32-3.98,4.68-3.93,8.27.17,11.31.07,22.62.06,33.92,0,1.5.05,3-.09,4.49-.5,5.38-4.15,8.92-8.98,8.76-4.87-.15-8.39-3.85-8.49-9.23-.03-1.7-.05-3.41-.06-5.11-.03-5.11.03-10.23.02-15.34,0-2.62-.06-5.24-.04-7.86,0-.87.03-1.75.06-2.62.26-6.92.05-12.78-6.42-18.21-8.16-6.84-6.35-20.75,1.93-27.91,8.72-7.54,21.68-6.44,28.88,2.46,7.14,8.82,6.03,21.73-2.95,28.38Zm-55.61-76.85c0-11.08-.42-22,.09-32.88,1-21.16,17.99-38.58,38.64-40.26,22.02-1.79,42.32,12.11,46.01,33.43,2.21,12.79,1.37,26.1,1.92,39.7H58.66Z"/></g></svg>