<?xml version="1.0" encoding="UTF-8"?><svg id="Ebene_2" xmlns="http://www.w3.org/2000/svg" viewBox="0 0 182.87 182.98"><defs><style>.cls-1{stroke-width:0px;}</style></defs><g id="Ebene_1-2"><g id="individulisierbar"><path class="cls-1" d="m173,140.35c-3.99-3.47-8.34-6.8-13.05-9.12-33.93-16.78-69.29-21.43-106.19-11.7-15.22,4.01-29.98,9.03-42.38,19.23-5.39,4.43-10.31,9.7-10.96,16.75-.82,9.02-.2,18.17-.2,27.48h182.55c0-7.09-.26-13.89.06-20.67.44-9.09-3.29-16.26-9.84-21.97Z"/><path class="cls-1" d="m91.45,91.68c25.36-.05,45.5-20.34,45.51-45.84C136.98,20.35,116.79.02,91.44,0c-25.29-.02-45.73,20.24-46,45.6-.27,25.27,20.56,46.13,46.01,46.08Z"/></g></g></svg>